SplineFontDB: 3.0
FontName: FifteenTwenty-Light
FullName: FifteenTwenty Light
FamilyName: FifteenTwenty
Weight: Light
Copyright: FifteenTwenty Light\nMade in 2016 by Stewart C. Russell - scruss.com\nLicence: Dual-licensed CC0/WTFPL (srsly)\n\n
UComments: "Derived from character stroke coordinates from the Commodore 1520 plotter ROM. This has been documented here - http://e4aws.silverdr.com/hacks/6500_1/ - and here - https://github.com/Project-64/reloaded/tree/master/1520/rom+AAoACgAA-This font contains none of the original Commodore coordinates, as they were in a format unusable with current computer systems.+AAoACgAA-Coverage: ASCII."
Version: 001.000
ItalicAngle: 0
UnderlinePosition: -100
UnderlineWidth: 50
Ascent: 800
Descent: 200
InvalidEm: 0
LayerCount: 2
Layer: 0 0 "Back" 1
Layer: 1 0 "Fore" 0
XUID: [1021 803 1264474343 2667122]
FSType: 0
OS2Version: 0
OS2_WeightWidthSlopeOnly: 0
OS2_UseTypoMetrics: 1
CreationTime: 1462802501
ModificationTime: 1462802791
PfmFamily: 17
TTFWeight: 300
TTFWidth: 5
LineGap: 90
VLineGap: 0
OS2TypoAscent: 0
OS2TypoAOffset: 1
OS2TypoDescent: 0
OS2TypoDOffset: 1
OS2TypoLinegap: 90
OS2WinAscent: 0
OS2WinAOffset: 1
OS2WinDescent: 0
OS2WinDOffset: 1
HheadAscent: 0
HheadAOffset: 1
HheadDescent: 0
HheadDOffset: 1
OS2Vendor: 'PfEd'
MarkAttachClasses: 1
DEI: 91125
Encoding: UnicodeFull
Compacted: 1
UnicodeInterp: none
NameList: AGL For New Fonts
DisplaySize: -48
AntiAlias: 1
FitToEm: 1
WinInfo: 0 17 10
BeginPrivate: 0
EndPrivate
BeginChars: 1114112 103

StartChar: exclam
Encoding: 33 33 0
Width: 576
VWidth: 186
Flags: W
HStem: 200 14<248 328> 293 14<248 328> 386 14<248 328> 758 14<248 328>
VStem: 234 14<214 293 400 758> 328 14<214 293 400 758>
LayerCount: 2
Back
Fore
SplineSet
242 772 m 0
 334 772 l 2
 338 772 342 769 342 765 c 2
 342 393 l 2
 342 389 338 386 334 386 c 2
 242 386 l 2
 240 386 237 387 236 388 c 0
 235 389 234 391 234 393 c 0
 234 394 l 2
 234 765 l 2
 234 769 238 772 242 772 c 0
248 758 m 1
 248 400 l 1
 328 400 l 1
 328 758 l 1
 248 758 l 1
242 307 m 0
 334 307 l 2
 338 307 342 304 342 300 c 2
 342 207 l 2
 342 203 338 200 334 200 c 2
 242 200 l 2
 240 200 237 201 236 202 c 0
 235 203 234 205 234 207 c 0
 234 208 l 2
 234 300 l 2
 234 304 238 307 242 307 c 0
248 293 m 1
 248 214 l 1
 328 214 l 1
 328 293 l 1
 248 293 l 1
EndSplineSet
EndChar

StartChar: quotedbl
Encoding: 34 34 1
Width: 576
VWidth: 186
Flags: W
HStem: 665 107<188 202 374 388>
VStem: 188 14<665.002 771.998> 374 14<665.002 771.998>
LayerCount: 2
Back
Fore
SplineSet
195 772 m 0
 199 772 202 769 202 765 c 0
 202 672 l 2
 202 668 199 665 195 665 c 0
 191 665 188 668 188 672 c 0
 188 765 l 2
 188 769 191 772 195 772 c 0
381 772 m 0
 385 772 388 769 388 765 c 0
 388 672 l 2
 388 668 385 665 381 665 c 0
 377 665 374 668 374 672 c 0
 374 765 l 2
 374 769 377 772 381 772 c 0
EndSplineSet
EndChar

StartChar: numbersign
Encoding: 35 35 2
Width: 576
VWidth: 186
Flags: W
HStem: 386 14<95.0022 188 202 374 388 480.998> 572 14<95.0022 188 202 374 388 480.998>
VStem: 188 14<293.002 386 400 572 586 678.998> 374 14<293.002 386 400 572 586 678.998>
LayerCount: 2
Back
Fore
SplineSet
195 679 m 0
 199 679 202 676 202 672 c 0
 202 586 l 1
 374 586 l 1
 374 672 l 2
 374 676 377 679 381 679 c 0
 385 679 388 676 388 672 c 0
 388 586 l 1
 474 586 l 2
 478 586 481 583 481 579 c 0
 481 575 478 572 474 572 c 0
 388 572 l 1
 388 400 l 1
 474 400 l 2
 478 400 481 397 481 393 c 0
 481 389 478 386 474 386 c 0
 388 386 l 1
 388 300 l 2
 388 296 385 293 381 293 c 0
 377 293 374 296 374 300 c 0
 374 386 l 1
 202 386 l 1
 202 300 l 2
 202 296 199 293 195 293 c 0
 191 293 188 296 188 300 c 0
 188 386 l 1
 102 386 l 2
 98 386 95 389 95 393 c 0
 95 397 98 400 102 400 c 0
 188 400 l 1
 188 572 l 1
 102 572 l 2
 98 572 95 575 95 579 c 0
 95 583 98 586 102 586 c 0
 188 586 l 1
 188 672 l 2
 188 676 191 679 195 679 c 0
202 572 m 1
 202 400 l 1
 374 400 l 1
 374 572 l 1
 202 572 l 1
EndSplineSet
EndChar

StartChar: dollar
Encoding: 36 36 3
Width: 576
VWidth: 186
Flags: W
HStem: 200 21G<286 290> 293 14<188.002 281 295 378> 479 14<198 281 295 378> 665 14<198 281 295 387.998> 752 20G<286 290>
VStem: 281 14<200.002 293 307 479 493 665 679 771.998>
LayerCount: 2
Back
Fore
SplineSet
288 772 m 0
 292 772 295 769 295 765 c 0
 295 679 l 1
 381 679 l 2
 385 679 388 676 388 672 c 0
 388 668 385 665 381 665 c 0
 295 665 l 1
 295 493 l 1
 381 493 l 2
 383 493 385 492 386 491 c 2
 479 398 l 2
 480 397 481 395 481 393 c 0
 481 391 480 389 479 388 c 2
 386 295 l 2
 385 294 383 293 381 293 c 2
 295 293 l 1
 295 207 l 2
 295 203 292 200 288 200 c 0
 284 200 281 203 281 207 c 0
 281 293 l 1
 195 293 l 2
 191 293 188 296 188 300 c 0
 188 304 191 307 195 307 c 0
 281 307 l 1
 281 479 l 1
 195 479 l 2
 193 479 191 480 190 481 c 2
 97 574 l 2
 96 575 95 577 95 579 c 0
 95 581 96 583 97 584 c 2
 190 677 l 2
 191 678 193 679 195 679 c 0
 281 679 l 1
 281 765 l 2
 281 769 284 772 288 772 c 0
198 665 m 1
 112 579 l 1
 198 493 l 1
 281 493 l 1
 281 665 l 1
 198 665 l 1
295 479 m 1
 295 307 l 1
 378 307 l 1
 464 393 l 1
 378 479 l 1
 295 479 l 1
EndSplineSet
EndChar

StartChar: percent
Encoding: 37 37 4
Width: 576
VWidth: 186
Flags: W
HStem: 293 14<388 467> 386 14<388 467> 572 14<109 188> 665 14<109 188>
VStem: 95 14<586 665> 188 14<586 665> 374 14<307 386> 467 14<307 386>
LayerCount: 2
Back
Fore
SplineSet
195 679 m 0
 197 679 199 678 200 677 c 0
 201 676 202 674 202 672 c 0
 202 671 l 2
 202 579 l 2
 202 575 199 572 195 572 c 2
 102 572 l 2
 98 572 95 575 95 579 c 2
 95 672 l 2
 95 676 98 679 102 679 c 2
 194 679 l 2
 195 679 l 0
474 679 m 0
 478 679 481 676 481 672 c 0
 481 670 480 668 479 667 c 2
 107 295 l 2
 106 294 104 293 102 293 c 0
 98 293 95 296 95 300 c 0
 95 302 96 304 97 305 c 2
 469 677 l 2
 470 678 472 679 474 679 c 0
109 665 m 1
 109 586 l 1
 188 586 l 1
 188 665 l 1
 109 665 l 1
381 400 m 0
 382 400 l 2
 474 400 l 2
 478 400 481 397 481 393 c 2
 481 300 l 2
 481 296 478 293 474 293 c 2
 381 293 l 2
 377 293 374 296 374 300 c 2
 374 392 l 2
 374 393 l 0
 374 395 375 397 376 398 c 0
 377 399 379 400 381 400 c 0
388 386 m 1
 388 307 l 1
 467 307 l 1
 467 386 l 1
 388 386 l 1
EndSplineSet
EndChar

StartChar: ampersand
Encoding: 38 38 5
Width: 576
VWidth: 186
Flags: W
HStem: 200 14<198 285> 752 20G<194 196>
VStem: 95 14<303 390 582 669> 281 14<582 669>
LayerCount: 2
Back
Fore
SplineSet
195 772 m 0
 197 772 199 771 200 770 c 2
 293 677 l 2
 294 676 295 674 295 672 c 2
 295 579 l 2
 295 577 294 575 293 574 c 2
 205 486 l 1
 381 310 l 1
 469 398 l 2
 470 399 472 400 474 400 c 0
 478 400 481 397 481 393 c 0
 481 391 480 389 479 388 c 2
 391 300 l 1
 479 212 l 2
 480 211 481 209 481 207 c 0
 481 203 478 200 474 200 c 0
 472 200 470 201 469 202 c 2
 381 290 l 1
 293 202 l 2
 292 201 290 200 288 200 c 0
 195 200 l 2
 193 200 191 201 190 202 c 2
 97 295 l 2
 96 296 95 298 95 300 c 2
 95 393 l 2
 95 395 96 397 97 398 c 2
 185 486 l 1
 97 574 l 2
 96 575 95 577 95 579 c 2
 95 672 l 2
 95 674 96 676 97 677 c 2
 190 770 l 2
 191 771 193 772 195 772 c 0
195 755 m 1
 109 669 l 1
 109 582 l 1
 195 496 l 1
 281 582 l 1
 281 669 l 1
 195 755 l 1
195 476 m 1
 109 390 l 1
 109 303 l 1
 198 214 l 1
 285 214 l 1
 371 300 l 1
 195 476 l 1
EndSplineSet
EndChar

StartChar: quotesingle
Encoding: 39 39 6
Width: 576
VWidth: 186
Flags: W
HStem: 572 200<281 295>
VStem: 281 14<572.002 771.998>
LayerCount: 2
Back
Fore
SplineSet
288 772 m 0
 292 772 295 769 295 765 c 0
 295 579 l 2
 295 575 292 572 288 572 c 0
 284 572 281 575 281 579 c 0
 281 765 l 2
 281 769 284 772 288 772 c 0
EndSplineSet
EndChar

StartChar: parenleft
Encoding: 40 40 7
Width: 576
VWidth: 186
Flags: W
HStem: 200 14<291 387.998> 758 14<291 387.998>
VStem: 188 14<303 669>
LayerCount: 2
Back
Fore
SplineSet
288 772 m 0
 381 772 l 2
 385 772 388 769 388 765 c 0
 388 761 385 758 381 758 c 0
 291 758 l 1
 202 669 l 1
 202 303 l 1
 291 214 l 1
 381 214 l 2
 385 214 388 211 388 207 c 0
 388 203 385 200 381 200 c 0
 288 200 l 2
 286 200 284 201 283 202 c 2
 190 295 l 2
 189 296 188 298 188 300 c 0
 188 672 l 2
 188 674 189 676 190 677 c 2
 283 770 l 2
 284 771 286 772 288 772 c 0
EndSplineSet
EndChar

StartChar: parenright
Encoding: 41 41 8
Width: 576
VWidth: 186
Flags: W
HStem: 200 14<188.002 285> 758 14<188.002 285>
VStem: 374 14<303 669>
LayerCount: 2
Back
Fore
SplineSet
195 772 m 0
 288 772 l 2
 290 772 292 771 293 770 c 2
 386 677 l 2
 387 676 388 674 388 672 c 2
 388 300 l 2
 388 298 387 296 386 295 c 2
 293 202 l 2
 292 201 290 200 288 200 c 0
 195 200 l 2
 191 200 188 203 188 207 c 0
 188 211 191 214 195 214 c 0
 285 214 l 1
 374 303 l 1
 374 669 l 1
 285 758 l 1
 195 758 l 2
 191 758 188 761 188 765 c 0
 188 769 191 772 195 772 c 0
EndSplineSet
EndChar

StartChar: asterisk
Encoding: 42 42 9
Width: 576
VWidth: 186
Flags: W
VStem: 281 14<293.002 469 503 678.998>
LayerCount: 2
Back
Fore
SplineSet
288 679 m 0
 292 679 295 676 295 672 c 0
 295 503 l 1
 469 677 l 2
 470 678 472 679 474 679 c 0
 478 679 481 676 481 672 c 0
 481 670 480 668 479 667 c 2
 298 486 l 1
 479 305 l 2
 480 304 481 302 481 300 c 0
 481 296 478 293 474 293 c 0
 472 293 470 294 469 295 c 2
 295 469 l 1
 295 300 l 2
 295 296 292 293 288 293 c 0
 284 293 281 296 281 300 c 0
 281 469 l 1
 107 295 l 2
 106 294 104 293 102 293 c 0
 98 293 95 296 95 300 c 0
 95 302 96 304 97 305 c 2
 278 486 l 1
 97 667 l 2
 96 668 95 670 95 672 c 0
 95 676 98 679 102 679 c 0
 104 679 106 678 107 677 c 2
 281 503 l 1
 281 672 l 2
 281 676 284 679 288 679 c 0
EndSplineSet
EndChar

StartChar: plus
Encoding: 43 43 10
Width: 576
VWidth: 186
Flags: W
HStem: 479 14<95.0022 281 295 480.998>
VStem: 281 14<293.002 479 493 678.998>
LayerCount: 2
Back
Fore
SplineSet
288 679 m 0
 292 679 295 676 295 672 c 0
 295 493 l 1
 474 493 l 2
 478 493 481 490 481 486 c 0
 481 482 478 479 474 479 c 0
 295 479 l 1
 295 300 l 2
 295 296 292 293 288 293 c 0
 284 293 281 296 281 300 c 0
 281 479 l 1
 102 479 l 2
 98 479 95 482 95 486 c 0
 95 490 98 493 102 493 c 0
 281 493 l 1
 281 672 l 2
 281 676 284 679 288 679 c 0
EndSplineSet
EndChar

StartChar: comma
Encoding: 44 44 11
Width: 576
VWidth: 186
Flags: W
HStem: 107 21G<240 243> 200 14<248 318> 293 14<248 328>
VStem: 234 14<214 293> 328 14<214 293>
LayerCount: 2
Back
Fore
SplineSet
242 307 m 1
 334 307 l 2
 338 307 342 304 342 300 c 2
 342 208 l 2
 342 207 l 0
 342 205 340 203 338 202 c 2
 246 109 l 2
 245 108 244 107 242 107 c 0
 238 107 234 110 234 114 c 0
 234 116 235 118 236 119 c 2
 318 200 l 1
 242 200 l 2
 238 200 234 203 234 207 c 2
 234 300 l 2
 234 304 238 307 242 307 c 1
248 293 m 1
 248 214 l 1
 328 214 l 1
 328 293 l 1
 248 293 l 1
EndSplineSet
EndChar

StartChar: hyphen
Encoding: 45 45 12
Width: 576
VWidth: 186
Flags: W
HStem: 479 14<95.0022 480.998>
LayerCount: 2
Back
Fore
SplineSet
102 493 m 0
 474 493 l 2
 478 493 481 490 481 486 c 0
 481 482 478 479 474 479 c 0
 102 479 l 2
 98 479 95 482 95 486 c 0
 95 490 98 493 102 493 c 0
EndSplineSet
EndChar

StartChar: period
Encoding: 46 46 13
Width: 576
VWidth: 186
Flags: W
HStem: 200 14<248 328> 293 14<248 328>
VStem: 234 14<214 293> 328 14<214 293>
LayerCount: 2
Back
Fore
SplineSet
242 307 m 0
 334 307 l 2
 338 307 342 304 342 300 c 2
 342 207 l 2
 342 203 338 200 334 200 c 2
 242 200 l 2
 240 200 237 201 236 202 c 0
 235 203 234 205 234 207 c 0
 234 208 l 2
 234 300 l 2
 234 304 238 307 242 307 c 0
248 293 m 1
 248 214 l 1
 328 214 l 1
 328 293 l 1
 248 293 l 1
EndSplineSet
EndChar

StartChar: slash
Encoding: 47 47 14
Width: 576
VWidth: 186
Flags: W
HStem: 200 21G<54 57>
LayerCount: 2
Back
Fore
SplineSet
520 679 m 0
 524 679 528 676 528 672 c 0
 528 670 527 668 526 667 c 2
 60 202 l 2
 59 201 58 200 56 200 c 0
 52 200 48 203 48 207 c 0
 48 209 49 211 50 212 c 2
 516 677 l 2
 517 678 518 679 520 679 c 0
EndSplineSet
EndChar

StartChar: zero
Encoding: 48 48 15
Width: 576
VWidth: 186
Flags: W
HStem: 200 14<198 378> 758 14<198 378>
VStem: 95 14<317 669> 467 14<303 655>
LayerCount: 2
Back
Fore
SplineSet
195 772 m 0
 381 772 l 2
 383 772 385 771 386 770 c 2
 478 678 l 2
 480 677 481 674 481 672 c 0
 481 300 l 2
 481 298 480 296 479 295 c 2
 386 202 l 2
 385 201 383 200 381 200 c 0
 195 200 l 2
 193 200 191 201 190 202 c 2
 98 294 l 2
 96 295 95 298 95 300 c 0
 95 301 l 2
 95 672 l 2
 95 674 96 676 97 677 c 2
 190 770 l 2
 191 771 193 772 195 772 c 0
198 758 m 1
 109 669 l 1
 109 317 l 1
 464 672 l 1
 378 758 l 1
 198 758 l 1
467 655 m 1
 112 300 l 1
 198 214 l 1
 378 214 l 1
 467 303 l 1
 467 655 l 1
EndSplineSet
EndChar

StartChar: one
Encoding: 49 49 16
Width: 576
VWidth: 186
Flags: W
HStem: 200 14<188.002 281 295 387.998> 752 20G<287 290>
VStem: 281 14<214 748>
LayerCount: 2
Back
Fore
SplineSet
288 772 m 0
 292 772 295 769 295 765 c 2
 295 214 l 1
 381 214 l 2
 385 214 388 211 388 207 c 0
 388 203 385 200 381 200 c 0
 289 200 l 2
 288 200 l 0
 287 200 l 2
 195 200 l 2
 191 200 188 203 188 207 c 0
 188 211 191 214 195 214 c 0
 281 214 l 1
 281 748 l 1
 200 667 l 2
 199 666 197 665 195 665 c 0
 191 665 188 668 188 672 c 0
 188 674 189 676 190 677 c 2
 283 770 l 2
 284 771 286 772 288 772 c 0
EndSplineSet
EndChar

StartChar: two
Encoding: 50 50 17
Width: 576
VWidth: 186
Flags: W
HStem: 200 14<119 480.998> 758 14<198 378>
VStem: 467 14<582 669>
LayerCount: 2
Back
Fore
SplineSet
195 772 m 0
 381 772 l 2
 383 772 385 771 386 770 c 2
 479 677 l 2
 480 676 481 674 481 672 c 2
 481 579 l 2
 481 577 480 575 479 574 c 2
 119 214 l 1
 474 214 l 2
 478 214 481 211 481 207 c 0
 481 203 478 200 474 200 c 0
 102 200 l 2
 98 200 95 203 95 207 c 0
 95 209 96 211 97 212 c 2
 467 582 l 1
 467 669 l 1
 378 758 l 1
 198 758 l 1
 107 667 l 2
 106 666 104 665 102 665 c 0
 98 665 95 668 95 672 c 0
 95 674 96 676 97 677 c 2
 190 770 l 2
 191 771 193 772 195 772 c 0
EndSplineSet
EndChar

StartChar: three
Encoding: 51 51 18
Width: 576
VWidth: 186
Flags: W
HStem: 200 14<198 378> 479 14<281.002 378> 758 14<198 378>
VStem: 467 14<303 390 582 669>
CounterMasks: 1 e0
LayerCount: 2
Back
Fore
SplineSet
195 772 m 0
 381 772 l 2
 383 772 385 771 386 770 c 2
 479 677 l 2
 480 676 481 674 481 672 c 2
 481 579 l 2
 481 577 480 575 479 574 c 2
 391 486 l 1
 479 398 l 2
 480 397 481 395 481 393 c 2
 481 300 l 2
 481 298 480 296 479 295 c 2
 386 202 l 2
 385 201 383 200 381 200 c 0
 195 200 l 2
 193 200 191 201 190 202 c 2
 97 295 l 2
 96 296 95 298 95 300 c 0
 95 304 98 307 102 307 c 0
 104 307 106 306 107 305 c 2
 198 214 l 1
 378 214 l 1
 467 303 l 1
 467 390 l 1
 378 479 l 1
 288 479 l 2
 284 479 281 482 281 486 c 0
 281 490 284 493 288 493 c 0
 378 493 l 1
 467 582 l 1
 467 669 l 1
 378 758 l 1
 198 758 l 1
 107 667 l 2
 106 666 104 665 102 665 c 0
 98 665 95 668 95 672 c 0
 95 674 96 676 97 677 c 2
 190 770 l 2
 191 771 193 772 195 772 c 0
EndSplineSet
EndChar

StartChar: four
Encoding: 52 52 19
Width: 576
VWidth: 186
Flags: W
HStem: 200 21G<379 383> 386 14<109 374 388 480.998> 752 20G<380 383>
VStem: 95 14<400 483> 374 14<200.002 386 400 748>
LayerCount: 2
Back
Fore
SplineSet
381 772 m 0
 385 772 388 769 388 765 c 2
 388 400 l 1
 474 400 l 2
 478 400 481 397 481 393 c 0
 481 389 478 386 474 386 c 0
 388 386 l 1
 388 207 l 2
 388 203 385 200 381 200 c 0
 377 200 374 203 374 207 c 0
 374 386 l 1
 102 386 l 2
 98 386 95 389 95 393 c 2
 95 486 l 2
 95 488 96 490 97 491 c 2
 376 770 l 2
 377 771 379 772 381 772 c 0
374 748 m 1
 109 483 l 1
 109 400 l 1
 374 400 l 1
 374 748 l 1
EndSplineSet
EndChar

StartChar: five
Encoding: 53 53 20
Width: 576
VWidth: 186
Flags: W
HStem: 200 14<198 378> 572 14<109 378> 758 14<109 480.998>
VStem: 95 14<586 758> 467 14<303 483>
LayerCount: 2
Back
Fore
SplineSet
102 772 m 1
 474 772 l 2
 478 772 481 769 481 765 c 0
 481 761 478 758 474 758 c 0
 109 758 l 1
 109 586 l 1
 381 586 l 2
 383 586 385 585 386 584 c 2
 479 491 l 2
 480 490 481 488 481 486 c 2
 481 300 l 2
 481 298 480 296 479 295 c 2
 386 202 l 2
 385 201 383 200 381 200 c 0
 195 200 l 2
 193 200 191 201 190 202 c 2
 97 295 l 2
 96 296 95 298 95 300 c 0
 95 304 98 307 102 307 c 0
 104 307 106 306 107 305 c 2
 198 214 l 1
 378 214 l 1
 467 303 l 1
 467 483 l 1
 378 572 l 1
 102 572 l 2
 98 572 95 575 95 579 c 2
 95 765 l 2
 95 769 98 772 102 772 c 1
EndSplineSet
EndChar

StartChar: six
Encoding: 54 54 21
Width: 576
VWidth: 186
Flags: W
HStem: 200 14<198 378> 572 14<198 378> 758 14<198 378>
VStem: 95 14<303 483 503 669> 467 14<303 483>
LayerCount: 2
Back
Fore
SplineSet
195 772 m 0
 381 772 l 2
 383 772 385 771 386 770 c 2
 479 677 l 2
 480 676 481 674 481 672 c 0
 481 668 478 665 474 665 c 0
 472 665 470 666 469 667 c 2
 378 758 l 1
 198 758 l 1
 109 669 l 1
 109 503 l 1
 190 584 l 2
 191 585 193 586 195 586 c 0
 381 586 l 2
 383 586 385 585 386 584 c 2
 479 491 l 2
 480 490 481 488 481 486 c 2
 481 300 l 2
 481 298 480 296 479 295 c 2
 386 202 l 2
 385 201 383 200 381 200 c 0
 195 200 l 2
 193 200 191 201 190 202 c 2
 97 295 l 2
 96 296 95 298 95 300 c 2
 95 485 l 2
 95 486 l 0
 95 487 l 2
 95 672 l 2
 95 674 96 676 97 677 c 2
 190 770 l 2
 191 771 193 772 195 772 c 0
198 572 m 1
 109 483 l 1
 109 303 l 1
 198 214 l 1
 378 214 l 1
 467 303 l 1
 467 483 l 1
 378 572 l 1
 198 572 l 1
EndSplineSet
EndChar

StartChar: seven
Encoding: 55 55 22
Width: 576
VWidth: 186
Flags: W
HStem: 200 21G<100 103> 758 14<95.0022 467>
VStem: 467 14<582 758>
LayerCount: 2
Back
Fore
SplineSet
102 772 m 0
 474 772 l 2
 478 772 481 769 481 765 c 2
 481 579 l 2
 481 577 480 575 479 574 c 2
 107 202 l 2
 106 201 104 200 102 200 c 0
 98 200 95 203 95 207 c 0
 95 209 96 211 97 212 c 2
 467 582 l 1
 467 758 l 1
 102 758 l 2
 98 758 95 761 95 765 c 0
 95 769 98 772 102 772 c 0
EndSplineSet
EndChar

StartChar: eight
Encoding: 56 56 23
Width: 576
VWidth: 186
Flags: W
HStem: 200 14<198 378> 479 14<198 378> 758 14<198 378>
VStem: 95 14<303 390 582 669> 467 14<303 390 582 669>
CounterMasks: 1 e0
LayerCount: 2
Back
Fore
SplineSet
195 772 m 0
 381 772 l 2
 383 772 385 771 386 770 c 2
 479 677 l 2
 480 676 481 674 481 672 c 2
 481 579 l 2
 481 577 480 575 479 574 c 2
 391 486 l 1
 479 398 l 2
 480 397 481 395 481 393 c 2
 481 300 l 2
 481 298 480 296 479 295 c 2
 386 202 l 2
 385 201 383 200 381 200 c 0
 195 200 l 2
 193 200 191 201 190 202 c 2
 97 295 l 2
 96 296 95 298 95 300 c 2
 95 393 l 2
 95 395 96 397 97 398 c 2
 185 486 l 1
 97 574 l 2
 96 575 95 577 95 579 c 2
 95 672 l 2
 95 674 96 676 97 677 c 2
 190 770 l 2
 191 771 193 772 195 772 c 0
198 758 m 1
 109 669 l 1
 109 582 l 1
 198 493 l 1
 378 493 l 1
 467 582 l 1
 467 669 l 1
 378 758 l 1
 198 758 l 1
198 479 m 1
 109 390 l 1
 109 303 l 1
 198 214 l 1
 378 214 l 1
 467 303 l 1
 467 390 l 1
 378 479 l 1
 198 479 l 1
EndSplineSet
EndChar

StartChar: nine
Encoding: 57 57 24
Width: 576
VWidth: 186
Flags: W
HStem: 200 14<198 378> 479 14<198 378> 758 14<198 378>
VStem: 95 14<582 669> 467 14<303 562 582 669>
CounterMasks: 1 e0
LayerCount: 2
Back
Fore
SplineSet
195 772 m 0
 381 772 l 2
 383 772 385 771 386 770 c 2
 479 677 l 2
 480 676 481 674 481 672 c 2
 481 580 l 2
 481 579 l 0
 481 578 l 2
 481 300 l 2
 481 298 480 296 479 295 c 2
 386 202 l 2
 385 201 383 200 381 200 c 0
 195 200 l 2
 193 200 191 201 190 202 c 2
 97 295 l 2
 96 296 95 298 95 300 c 0
 95 304 98 307 102 307 c 0
 104 307 106 306 107 305 c 2
 198 214 l 1
 378 214 l 1
 467 303 l 1
 467 562 l 1
 386 481 l 2
 385 480 383 479 381 479 c 0
 195 479 l 2
 193 479 191 480 190 481 c 2
 97 574 l 2
 96 575 95 577 95 579 c 2
 95 672 l 2
 95 674 96 676 97 677 c 2
 190 770 l 2
 191 771 193 772 195 772 c 0
198 758 m 1
 109 669 l 1
 109 582 l 1
 198 493 l 1
 378 493 l 1
 467 582 l 1
 467 669 l 1
 378 758 l 1
 198 758 l 1
EndSplineSet
EndChar

StartChar: colon
Encoding: 58 58 25
Width: 576
VWidth: 186
Flags: W
HStem: 293 14<248 328> 386 14<248 328> 572 14<248 328> 665 14<248 328>
VStem: 234 14<307 386 586 665> 328 14<307 386 586 665>
LayerCount: 2
Back
Fore
SplineSet
242 679 m 1
 334 679 l 2
 338 679 342 676 342 672 c 2
 342 579 l 2
 342 575 338 572 334 572 c 2
 242 572 l 2
 240 572 237 573 236 574 c 0
 235 575 234 577 234 579 c 0
 234 580 l 2
 234 672 l 2
 234 676 238 679 242 679 c 1
248 665 m 1
 248 586 l 1
 328 586 l 1
 328 665 l 1
 248 665 l 1
242 400 m 1
 334 400 l 2
 338 400 342 397 342 393 c 2
 342 300 l 2
 342 296 338 293 334 293 c 2
 242 293 l 2
 240 293 237 294 236 295 c 0
 235 296 234 298 234 300 c 0
 234 301 l 2
 234 393 l 2
 234 397 238 400 242 400 c 1
248 386 m 1
 248 307 l 1
 328 307 l 1
 328 386 l 1
 248 386 l 1
EndSplineSet
EndChar

StartChar: semicolon
Encoding: 59 59 26
Width: 576
VWidth: 186
Flags: W
HStem: 200 21G<240 243> 293 14<248 318> 386 14<248 328> 572 14<248 328> 665 14<248 328>
VStem: 234 14<307 386 586 665> 328 14<307 386 586 665>
LayerCount: 2
Back
Fore
SplineSet
242 679 m 0
 334 679 l 2
 338 679 342 676 342 672 c 2
 342 580 l 2
 342 579 l 0
 342 577 341 575 340 574 c 0
 339 573 336 572 334 572 c 0
 242 572 l 2
 238 572 234 575 234 579 c 2
 234 672 l 2
 234 676 238 679 242 679 c 0
248 665 m 1
 248 586 l 1
 328 586 l 1
 328 665 l 1
 248 665 l 1
242 400 m 2
 334 400 l 2
 338 400 342 397 342 393 c 2
 342 301 l 2
 342 300 l 0
 342 298 340 296 338 295 c 2
 246 202 l 2
 245 201 244 200 242 200 c 0
 238 200 234 203 234 207 c 0
 234 209 235 211 236 212 c 2
 318 293 l 1
 242 293 l 2
 238 293 234 296 234 300 c 2
 234 393 l 2
 234 397 238 400 242 400 c 2
248 386 m 1
 248 307 l 1
 328 307 l 1
 328 386 l 1
 248 386 l 1
EndSplineSet
EndChar

StartChar: less
Encoding: 60 60 27
Width: 576
VWidth: 186
Flags: W
HStem: 200 21G<427 430> 752 20G<427 430>
VStem: 142 292
LayerCount: 2
Back
Fore
SplineSet
428 772 m 0
 432 772 434 769 434 765 c 0
 434 763 433 761 432 760 c 2
 158 486 l 1
 432 212 l 2
 433 211 434 209 434 207 c 0
 434 203 432 200 428 200 c 0
 426 200 423 201 422 202 c 2
 144 481 l 2
 143 482 142 484 142 486 c 0
 142 488 143 490 144 491 c 2
 422 770 l 2
 423 771 426 772 428 772 c 0
EndSplineSet
EndChar

StartChar: equal
Encoding: 61 61 28
Width: 576
VWidth: 186
Flags: W
HStem: 386 14<142.001 433.999> 572 14<142.001 433.999>
VStem: 142 292<386 400 572 586>
LayerCount: 2
Back
Fore
SplineSet
148 586 m 0
 428 586 l 2
 432 586 434 583 434 579 c 0
 434 575 432 572 428 572 c 0
 148 572 l 2
 144 572 142 575 142 579 c 0
 142 583 144 586 148 586 c 0
148 400 m 0
 428 400 l 2
 432 400 434 397 434 393 c 0
 434 389 432 386 428 386 c 0
 148 386 l 2
 144 386 142 389 142 393 c 0
 142 397 144 400 148 400 c 0
EndSplineSet
EndChar

StartChar: greater
Encoding: 62 62 29
Width: 576
VWidth: 186
Flags: W
HStem: 200 21G<146 149> 752 20G<146 149>
VStem: 142 292
LayerCount: 2
Back
Fore
SplineSet
148 772 m 0
 150 772 153 771 154 770 c 2
 432 491 l 2
 433 490 434 488 434 486 c 0
 434 484 433 482 432 481 c 2
 154 202 l 2
 153 201 150 200 148 200 c 0
 144 200 142 203 142 207 c 0
 142 209 143 211 144 212 c 2
 418 486 l 1
 144 760 l 2
 143 761 142 763 142 765 c 0
 142 769 144 772 148 772 c 0
EndSplineSet
EndChar

StartChar: question
Encoding: 63 63 30
Width: 576
VWidth: 186
Flags: W
HStem: 200 21G<286 290> 479 14<295 378> 758 14<198 378>
VStem: 281 14<200.002 306.998 386.002 479> 467 14<582 669>
LayerCount: 2
Back
Fore
SplineSet
195 772 m 0
 381 772 l 2
 383 772 385 771 386 770 c 2
 479 677 l 2
 480 676 481 674 481 672 c 2
 481 579 l 2
 481 577 480 575 479 574 c 2
 386 481 l 2
 385 480 383 479 381 479 c 0
 295 479 l 1
 295 393 l 2
 295 389 292 386 288 386 c 0
 284 386 281 389 281 393 c 0
 281 486 l 2
 281 490 284 493 288 493 c 2
 378 493 l 1
 467 582 l 1
 467 669 l 1
 378 758 l 1
 198 758 l 1
 107 667 l 2
 106 666 104 665 102 665 c 0
 98 665 95 668 95 672 c 0
 95 674 96 676 97 677 c 2
 190 770 l 2
 191 771 193 772 195 772 c 0
288 307 m 0
 292 307 295 304 295 300 c 0
 295 207 l 2
 295 203 292 200 288 200 c 0
 284 200 281 203 281 207 c 0
 281 300 l 2
 281 304 284 307 288 307 c 0
EndSplineSet
EndChar

StartChar: at
Encoding: 64 64 31
Width: 576
VWidth: 186
Flags: W
HStem: 200 14<198 480.998> 293 14<202 378> 572 14<202 374> 665 14<198 378>
VStem: 95 14<303 576> 188 14<307 572> 374 14<386.002 572> 467 14<396 576>
LayerCount: 2
Back
Fore
SplineSet
195 679 m 0
 381 679 l 2
 383 679 385 678 386 677 c 2
 479 584 l 2
 480 583 481 581 481 579 c 0
 481 393 l 2
 481 391 480 389 479 388 c 2
 386 295 l 2
 385 294 383 293 381 293 c 2
 195 293 l 2
 191 293 188 296 188 300 c 2
 188 579 l 2
 188 583 191 586 195 586 c 2
 381 586 l 2
 385 586 388 583 388 579 c 2
 388 393 l 2
 388 389 385 386 381 386 c 0
 377 386 374 389 374 393 c 0
 374 572 l 1
 202 572 l 1
 202 307 l 1
 378 307 l 1
 467 396 l 1
 467 576 l 1
 378 665 l 1
 198 665 l 1
 109 576 l 1
 109 303 l 1
 198 214 l 1
 474 214 l 2
 478 214 481 211 481 207 c 0
 481 203 478 200 474 200 c 0
 195 200 l 2
 193 200 191 201 190 202 c 2
 97 295 l 2
 96 296 95 298 95 300 c 2
 95 579 l 2
 95 581 96 583 97 584 c 2
 190 677 l 2
 191 678 193 679 195 679 c 0
EndSplineSet
EndChar

StartChar: A
Encoding: 65 65 32
Width: 576
VWidth: 186
Flags: W
HStem: 200 21G<100 104 472 476> 479 14<109 467> 752 20G<287 289>
VStem: 95 14<200.002 479 493 576> 467 14<200.002 479 493 576>
LayerCount: 2
Back
Fore
SplineSet
288 772 m 0
 290 772 292 771 293 770 c 2
 479 584 l 2
 480 583 481 581 481 579 c 0
 481 487 l 2
 481 486 l 0
 481 485 l 2
 481 207 l 2
 481 203 478 200 474 200 c 0
 470 200 467 203 467 207 c 0
 467 479 l 1
 109 479 l 1
 109 207 l 2
 109 203 106 200 102 200 c 0
 98 200 95 203 95 207 c 0
 95 485 l 2
 95 486 l 0
 95 487 l 2
 95 579 l 2
 95 581 96 583 97 584 c 2
 283 770 l 2
 284 771 286 772 288 772 c 0
288 755 m 1
 109 576 l 1
 109 493 l 1
 467 493 l 1
 467 576 l 1
 288 755 l 1
EndSplineSet
EndChar

StartChar: B
Encoding: 66 66 33
Width: 576
VWidth: 186
Flags: W
HStem: 200 14<109 378> 479 14<109 378> 758 14<109 378>
VStem: 95 14<214 479 493 758> 467 14<303 390 582 669>
CounterMasks: 1 e0
LayerCount: 2
Back
Fore
SplineSet
102 772 m 1
 381 772 l 2
 383 772 385 771 386 770 c 2
 479 677 l 2
 480 676 481 674 481 672 c 2
 481 579 l 2
 481 577 480 575 479 574 c 2
 391 486 l 1
 479 398 l 2
 480 397 481 395 481 393 c 2
 481 300 l 2
 481 298 480 296 479 295 c 2
 386 202 l 2
 385 201 383 200 381 200 c 0
 103 200 l 2
 102 200 l 0
 100 200 98 201 97 202 c 0
 96 203 95 205 95 207 c 0
 95 208 l 2
 95 485 l 2
 95 486 l 0
 95 487 l 2
 95 765 l 2
 95 769 98 772 102 772 c 1
109 758 m 1
 109 493 l 1
 378 493 l 1
 467 582 l 1
 467 669 l 1
 378 758 l 1
 109 758 l 1
109 479 m 1
 109 214 l 1
 378 214 l 1
 467 303 l 1
 467 390 l 1
 378 479 l 1
 109 479 l 1
EndSplineSet
EndChar

StartChar: C
Encoding: 67 67 34
Width: 576
VWidth: 186
Flags: W
HStem: 200 14<198 378> 758 14<198 378>
VStem: 95 14<303 669>
LayerCount: 2
Back
Fore
SplineSet
195 772 m 0
 381 772 l 2
 383 772 385 771 386 770 c 2
 479 677 l 2
 480 676 481 674 481 672 c 0
 481 668 478 665 474 665 c 0
 472 665 470 666 469 667 c 2
 378 758 l 1
 198 758 l 1
 109 669 l 1
 109 303 l 1
 198 214 l 1
 378 214 l 1
 469 305 l 2
 470 306 472 307 474 307 c 0
 478 307 481 304 481 300 c 0
 481 298 480 296 479 295 c 2
 386 202 l 2
 385 201 383 200 381 200 c 0
 195 200 l 2
 193 200 191 201 190 202 c 2
 97 295 l 2
 96 296 95 298 95 300 c 2
 95 672 l 2
 95 674 96 676 97 677 c 2
 190 770 l 2
 191 771 193 772 195 772 c 0
EndSplineSet
EndChar

StartChar: D
Encoding: 68 68 35
Width: 576
VWidth: 186
Flags: W
HStem: 200 14<109 378> 758 14<109 378>
VStem: 95 14<214 758> 467 14<303 669>
LayerCount: 2
Back
Fore
SplineSet
102 772 m 1
 381 772 l 2
 383 772 385 771 386 770 c 2
 479 677 l 2
 480 676 481 674 481 672 c 2
 481 300 l 2
 481 298 480 296 479 295 c 2
 386 202 l 2
 385 201 383 200 381 200 c 0
 103 200 l 2
 102 200 l 0
 100 200 98 201 97 202 c 0
 96 203 95 205 95 207 c 0
 95 208 l 2
 95 765 l 2
 95 769 98 772 102 772 c 1
109 758 m 1
 109 214 l 1
 378 214 l 1
 467 303 l 1
 467 669 l 1
 378 758 l 1
 109 758 l 1
EndSplineSet
EndChar

StartChar: E
Encoding: 69 69 36
Width: 576
VWidth: 186
Flags: W
HStem: 200 14<109 480.998> 479 14<109 387.998> 758 14<109 480.998>
VStem: 95 14<214 479 493 758>
CounterMasks: 1 e0
LayerCount: 2
Back
Fore
SplineSet
102 772 m 1
 474 772 l 2
 478 772 481 769 481 765 c 0
 481 761 478 758 474 758 c 0
 109 758 l 1
 109 493 l 1
 381 493 l 2
 385 493 388 490 388 486 c 0
 388 482 385 479 381 479 c 0
 109 479 l 1
 109 214 l 1
 474 214 l 2
 478 214 481 211 481 207 c 0
 481 203 478 200 474 200 c 0
 102 200 l 2
 98 200 95 203 95 207 c 2
 95 485 l 2
 95 486 l 0
 95 487 l 2
 95 765 l 2
 95 769 98 772 102 772 c 1
EndSplineSet
EndChar

StartChar: F
Encoding: 70 70 37
Width: 576
VWidth: 186
Flags: W
HStem: 200 21G<100 104> 479 14<109 387.998> 758 14<109 480.998>
VStem: 95 14<200.002 479 493 758>
LayerCount: 2
Back
Fore
SplineSet
102 772 m 1
 474 772 l 2
 478 772 481 769 481 765 c 0
 481 761 478 758 474 758 c 0
 109 758 l 1
 109 493 l 1
 381 493 l 2
 385 493 388 490 388 486 c 0
 388 482 385 479 381 479 c 0
 109 479 l 1
 109 207 l 2
 109 203 106 200 102 200 c 0
 98 200 95 203 95 207 c 0
 95 485 l 2
 95 486 l 0
 95 487 l 2
 95 765 l 2
 95 769 98 772 102 772 c 1
EndSplineSet
EndChar

StartChar: G
Encoding: 71 71 38
Width: 576
VWidth: 186
Flags: W
HStem: 200 14<198 467> 479 14<281.002 467> 758 14<198 378>
VStem: 95 14<303 669> 467 14<214 479>
CounterMasks: 1 e0
LayerCount: 2
Back
Fore
SplineSet
195 772 m 0
 381 772 l 2
 383 772 385 771 386 770 c 2
 479 677 l 2
 480 676 481 674 481 672 c 0
 481 668 478 665 474 665 c 0
 472 665 470 666 469 667 c 2
 378 758 l 1
 198 758 l 1
 109 669 l 1
 109 303 l 1
 198 214 l 1
 467 214 l 1
 467 479 l 1
 288 479 l 2
 284 479 281 482 281 486 c 0
 281 490 284 493 288 493 c 0
 474 493 l 2
 478 493 481 490 481 486 c 2
 481 207 l 2
 481 203 478 200 474 200 c 2
 195 200 l 2
 193 200 191 201 190 202 c 2
 97 295 l 2
 96 296 95 298 95 300 c 2
 95 672 l 2
 95 674 96 676 97 677 c 2
 190 770 l 2
 191 771 193 772 195 772 c 0
EndSplineSet
EndChar

StartChar: H
Encoding: 72 72 39
Width: 576
VWidth: 186
Flags: W
HStem: 200 21G<100 104 472 476> 479 14<109 467> 752 20G<100 104 472 476>
VStem: 95 14<200.002 479 493 771.998> 467 14<200.002 479 493 771.998>
LayerCount: 2
Back
Fore
SplineSet
102 772 m 0
 106 772 109 769 109 765 c 0
 109 493 l 1
 467 493 l 1
 467 765 l 2
 467 769 470 772 474 772 c 0
 478 772 481 769 481 765 c 0
 481 487 l 2
 481 486 l 0
 481 485 l 2
 481 207 l 2
 481 203 478 200 474 200 c 0
 470 200 467 203 467 207 c 0
 467 479 l 1
 109 479 l 1
 109 207 l 2
 109 203 106 200 102 200 c 0
 98 200 95 203 95 207 c 0
 95 485 l 2
 95 486 l 0
 95 487 l 2
 95 765 l 2
 95 769 98 772 102 772 c 0
EndSplineSet
EndChar

StartChar: I
Encoding: 73 73 40
Width: 576
VWidth: 186
Flags: W
HStem: 200 14<188.002 281 295 387.998> 758 14<188.002 281 295 387.998>
VStem: 281 14<214 758>
LayerCount: 2
Back
Fore
SplineSet
288 772 m 0
 289 772 l 2
 381 772 l 2
 385 772 388 769 388 765 c 0
 388 761 385 758 381 758 c 0
 295 758 l 1
 295 214 l 1
 381 214 l 2
 385 214 388 211 388 207 c 0
 388 203 385 200 381 200 c 0
 289 200 l 2
 288 200 l 0
 287 200 l 2
 195 200 l 2
 191 200 188 203 188 207 c 0
 188 211 191 214 195 214 c 0
 281 214 l 1
 281 758 l 1
 195 758 l 2
 191 758 188 761 188 765 c 0
 188 769 191 772 195 772 c 0
 287 772 l 2
 288 772 l 0
EndSplineSet
EndChar

StartChar: J
Encoding: 74 74 41
Width: 576
VWidth: 186
Flags: W
HStem: 200 14<244 332> 752 20G<426 430>
VStem: 420 14<303 771.923>
LayerCount: 2
Back
Fore
SplineSet
428 772 m 0
 432 772 434 769 434 765 c 0
 434 300 l 2
 434 298 433 296 432 295 c 2
 340 202 l 2
 339 201 336 200 334 200 c 0
 242 200 l 2
 240 200 237 201 236 202 c 2
 144 295 l 2
 143 296 142 298 142 300 c 0
 142 304 144 307 148 307 c 0
 150 307 153 306 154 305 c 2
 244 214 l 1
 332 214 l 1
 420 303 l 1
 420 765 l 2
 420 769 424 772 428 772 c 0
EndSplineSet
EndChar

StartChar: K
Encoding: 75 75 42
Width: 576
VWidth: 186
Flags: W
HStem: 200 21G<100 104 473 476> 752 20G<100 104 473 476>
VStem: 95 14<200.002 390 410 771.998>
LayerCount: 2
Back
Fore
SplineSet
102 772 m 0
 106 772 109 769 109 765 c 0
 109 410 l 1
 189 490 l 2
 189 491 190 492 191 492 c 2
 469 770 l 2
 470 771 472 772 474 772 c 0
 478 772 481 769 481 765 c 0
 481 763 480 761 479 760 c 2
 205 486 l 1
 479 212 l 2
 480 211 481 209 481 207 c 0
 481 203 478 200 474 200 c 0
 472 200 470 201 469 202 c 2
 195 476 l 1
 109 390 l 1
 109 207 l 2
 109 203 106 200 102 200 c 0
 98 200 95 203 95 207 c 0
 95 392 l 2
 95 393 l 0
 95 394 l 2
 95 765 l 2
 95 769 98 772 102 772 c 0
EndSplineSet
EndChar

StartChar: L
Encoding: 76 76 43
Width: 576
VWidth: 186
Flags: W
HStem: 200 14<109 480.998> 752 20G<100 104>
VStem: 95 14<214 771.998>
LayerCount: 2
Back
Fore
SplineSet
102 772 m 0
 106 772 109 769 109 765 c 0
 109 214 l 1
 474 214 l 2
 478 214 481 211 481 207 c 0
 481 203 478 200 474 200 c 0
 102 200 l 2
 98 200 95 203 95 207 c 2
 95 765 l 2
 95 769 98 772 102 772 c 0
EndSplineSet
EndChar

StartChar: M
Encoding: 77 77 44
Width: 576
VWidth: 186
Flags: W
HStem: 200 21G<100 104 472 476> 752 20G<100 103 473 476>
VStem: 95 14<200.002 748> 281 14<479.002 576> 467 14<200.002 748>
CounterMasks: 1 38
LayerCount: 2
Back
Fore
SplineSet
102 772 m 0
 104 772 106 771 107 770 c 2
 288 589 l 1
 469 770 l 2
 470 771 472 772 474 772 c 0
 478 772 481 769 481 765 c 2
 481 207 l 2
 481 203 478 200 474 200 c 0
 470 200 467 203 467 207 c 0
 467 748 l 1
 295 576 l 1
 295 486 l 2
 295 482 292 479 288 479 c 0
 284 479 281 482 281 486 c 2
 281 576 l 1
 109 748 l 1
 109 207 l 2
 109 203 106 200 102 200 c 0
 98 200 95 203 95 207 c 0
 95 765 l 2
 95 769 98 772 102 772 c 0
EndSplineSet
EndChar

StartChar: N
Encoding: 78 78 45
Width: 576
VWidth: 186
Flags: W
HStem: 200 21G<100 104 472 476> 752 20G<100 104 472 476>
VStem: 95 14<200.002 655 675 771.998> 467 14<200.002 297 317 771.998>
LayerCount: 2
Back
Fore
SplineSet
102 772 m 0
 106 772 109 769 109 765 c 0
 109 675 l 1
 467 317 l 1
 467 765 l 2
 467 769 470 772 474 772 c 0
 478 772 481 769 481 765 c 0
 481 301 l 2
 481 300 l 0
 481 299 l 2
 481 207 l 2
 481 203 478 200 474 200 c 0
 470 200 467 203 467 207 c 0
 467 297 l 1
 109 655 l 1
 109 207 l 2
 109 203 106 200 102 200 c 0
 98 200 95 203 95 207 c 0
 95 671 l 2
 95 672 l 0
 95 673 l 2
 95 765 l 2
 95 769 98 772 102 772 c 0
EndSplineSet
EndChar

StartChar: O
Encoding: 79 79 46
Width: 576
VWidth: 186
Flags: W
HStem: 200 14<198 378> 758 14<198 378>
VStem: 95 14<303 669> 467 14<303 669>
LayerCount: 2
Back
Fore
SplineSet
195 772 m 0
 381 772 l 2
 383 772 385 771 386 770 c 2
 479 677 l 2
 480 676 481 674 481 672 c 2
 481 300 l 2
 481 298 480 296 479 295 c 2
 386 202 l 2
 385 201 383 200 381 200 c 0
 195 200 l 2
 193 200 191 201 190 202 c 2
 98 294 l 2
 97 295 96 296 96 297 c 0
 96 298 l 0
 96 299 95 299 95 300 c 0
 95 301 l 2
 95 672 l 2
 95 674 96 676 97 677 c 2
 190 770 l 2
 191 771 193 772 195 772 c 0
198 758 m 1
 109 669 l 1
 109 303 l 1
 198 214 l 1
 378 214 l 1
 467 303 l 1
 467 669 l 1
 378 758 l 1
 198 758 l 1
EndSplineSet
EndChar

StartChar: P
Encoding: 80 80 47
Width: 576
VWidth: 186
Flags: W
HStem: 200 21G<100 104> 479 14<109 378> 758 14<109 378>
VStem: 95 14<200.002 479 493 758> 467 14<582 669>
LayerCount: 2
Back
Fore
SplineSet
102 772 m 1
 381 772 l 2
 383 772 385 771 386 770 c 2
 479 677 l 2
 480 676 481 674 481 672 c 2
 481 579 l 2
 481 577 480 575 479 574 c 2
 386 481 l 2
 385 480 383 479 381 479 c 0
 109 479 l 1
 109 207 l 2
 109 203 106 200 102 200 c 0
 98 200 95 203 95 207 c 0
 95 485 l 2
 95 486 l 0
 95 487 l 2
 95 765 l 2
 95 769 98 772 102 772 c 1
109 758 m 1
 109 493 l 1
 378 493 l 1
 467 582 l 1
 467 669 l 1
 378 758 l 1
 109 758 l 1
EndSplineSet
EndChar

StartChar: Q
Encoding: 81 81 48
Width: 576
VWidth: 186
Flags: W
HStem: 200 14<198 378> 758 14<198 378>
VStem: 95 14<303 669> 467 14<303 669>
LayerCount: 2
Back
Fore
SplineSet
195 772 m 0
 381 772 l 2
 383 772 385 771 386 770 c 2
 479 677 l 2
 480 676 481 674 481 672 c 2
 481 300 l 2
 481 298 480 296 479 295 c 2
 437 254 l 1
 479 212 l 2
 480 211 481 209 481 207 c 0
 481 203 478 200 474 200 c 0
 472 200 470 201 469 202 c 2
 428 244 l 1
 387 203 l 2
 386 202 385 201 384 201 c 0
 383 201 382 200 381 200 c 0
 380 200 l 2
 195 200 l 2
 193 200 191 201 190 202 c 2
 97 295 l 2
 96 296 95 298 95 300 c 2
 95 672 l 2
 95 674 96 676 97 677 c 2
 190 770 l 2
 191 771 193 772 195 772 c 0
198 758 m 1
 109 669 l 1
 109 303 l 1
 198 214 l 1
 378 214 l 1
 418 254 l 1
 283 388 l 2
 282 389 281 391 281 393 c 0
 281 397 284 400 288 400 c 0
 290 400 292 399 293 398 c 2
 428 264 l 1
 467 303 l 1
 467 669 l 1
 378 758 l 1
 198 758 l 1
EndSplineSet
EndChar

StartChar: R
Encoding: 82 82 49
Width: 576
VWidth: 186
Flags: W
HStem: 200 21G<100 104 473 476> 479 14<109 192 212 378> 758 14<109 378>
VStem: 95 14<200.002 479 493 758> 467 14<582 669>
LayerCount: 2
Back
Fore
SplineSet
102 772 m 2
 381 772 l 2
 383 772 385 771 386 770 c 2
 479 677 l 2
 480 676 481 674 481 672 c 2
 481 579 l 2
 481 577 480 575 479 574 c 2
 386 481 l 2
 385 480 383 479 381 479 c 0
 212 479 l 1
 479 212 l 2
 480 211 481 209 481 207 c 0
 481 203 478 200 474 200 c 0
 472 200 470 201 469 202 c 2
 192 479 l 1
 109 479 l 1
 109 207 l 2
 109 203 106 200 102 200 c 0
 98 200 95 203 95 207 c 0
 95 485 l 2
 95 486 l 0
 95 487 l 2
 95 765 l 2
 95 769 98 772 102 772 c 2
109 758 m 1
 109 493 l 1
 194 493 l 2
 195 493 l 0
 196 493 l 2
 378 493 l 1
 467 582 l 1
 467 669 l 1
 378 758 l 1
 109 758 l 1
EndSplineSet
EndChar

StartChar: S
Encoding: 83 83 50
Width: 576
VWidth: 186
Flags: W
HStem: 200 14<198 378> 479 14<198 378> 758 14<198 378>
VStem: 95 14<582 669> 467 14<303 390>
CounterMasks: 1 e0
LayerCount: 2
Back
Fore
SplineSet
195 772 m 0
 381 772 l 2
 383 772 385 771 386 770 c 2
 479 677 l 2
 480 676 481 674 481 672 c 0
 481 668 478 665 474 665 c 0
 472 665 470 666 469 667 c 2
 378 758 l 1
 198 758 l 1
 109 669 l 1
 109 582 l 1
 198 493 l 1
 381 493 l 2
 383 493 385 492 386 491 c 2
 479 398 l 2
 480 397 481 395 481 393 c 2
 481 300 l 2
 481 298 480 296 479 295 c 2
 386 202 l 2
 385 201 383 200 381 200 c 0
 195 200 l 2
 193 200 191 201 190 202 c 2
 97 295 l 2
 96 296 95 298 95 300 c 0
 95 304 98 307 102 307 c 0
 104 307 106 306 107 305 c 2
 198 214 l 1
 378 214 l 1
 467 303 l 1
 467 390 l 1
 378 479 l 1
 195 479 l 2
 193 479 191 480 190 481 c 2
 97 574 l 2
 96 575 95 577 95 579 c 2
 95 672 l 2
 95 674 96 676 97 677 c 2
 190 770 l 2
 191 771 193 772 195 772 c 0
EndSplineSet
EndChar

StartChar: T
Encoding: 84 84 51
Width: 576
VWidth: 186
Flags: W
HStem: 200 21G<286 290> 758 14<95.0022 281 295 480.998>
VStem: 281 14<200.002 758>
LayerCount: 2
Back
Fore
SplineSet
288 772 m 0
 289 772 l 2
 474 772 l 2
 478 772 481 769 481 765 c 0
 481 761 478 758 474 758 c 0
 295 758 l 1
 295 207 l 2
 295 203 292 200 288 200 c 0
 284 200 281 203 281 207 c 0
 281 758 l 1
 102 758 l 2
 98 758 95 761 95 765 c 0
 95 769 98 772 102 772 c 0
 287 772 l 2
 288 772 l 0
EndSplineSet
EndChar

StartChar: U
Encoding: 85 85 52
Width: 576
VWidth: 186
Flags: W
HStem: 200 14<198 378> 752 20G<100 104 472 476>
VStem: 95 14<303 771.998> 467 14<303 771.998>
LayerCount: 2
Back
Fore
SplineSet
102 772 m 0
 106 772 109 769 109 765 c 0
 109 303 l 1
 198 214 l 1
 378 214 l 1
 467 303 l 1
 467 765 l 2
 467 769 470 772 474 772 c 0
 478 772 481 769 481 765 c 0
 481 300 l 2
 481 298 480 296 479 295 c 2
 386 202 l 2
 385 201 383 200 381 200 c 0
 195 200 l 2
 193 200 191 201 190 202 c 2
 97 295 l 2
 96 296 95 298 95 300 c 2
 95 765 l 2
 95 769 98 772 102 772 c 0
EndSplineSet
EndChar

StartChar: V
Encoding: 86 86 53
Width: 576
VWidth: 186
Flags: W
HStem: 200 21G<287 289> 752 20G<100 104 472 476>
VStem: 95 14<396 771.998> 467 14<396 771.998>
LayerCount: 2
Back
Fore
SplineSet
102 772 m 0
 106 772 109 769 109 765 c 0
 109 396 l 1
 288 217 l 1
 467 396 l 1
 467 765 l 2
 467 769 470 772 474 772 c 0
 478 772 481 769 481 765 c 0
 481 393 l 2
 481 391 480 389 479 388 c 2
 293 202 l 2
 292 201 290 200 288 200 c 0
 286 200 284 201 283 202 c 2
 97 388 l 2
 96 389 95 391 95 393 c 2
 95 765 l 2
 95 769 98 772 102 772 c 0
EndSplineSet
EndChar

StartChar: W
Encoding: 87 87 54
Width: 576
VWidth: 186
Flags: W
HStem: 200 21G<100 103 473 476> 752 20G<100 104 472 476>
VStem: 95 14<224 771.998> 281 14<396 492.998> 467 14<224 771.998>
CounterMasks: 1 38
LayerCount: 2
Back
Fore
SplineSet
102 772 m 0
 106 772 109 769 109 765 c 0
 109 224 l 1
 281 396 l 1
 281 486 l 2
 281 490 284 493 288 493 c 0
 292 493 295 490 295 486 c 0
 295 396 l 1
 467 224 l 1
 467 765 l 2
 467 769 470 772 474 772 c 0
 478 772 481 769 481 765 c 0
 481 207 l 2
 481 203 478 200 474 200 c 0
 472 200 470 201 469 202 c 2
 288 383 l 1
 107 202 l 2
 106 201 104 200 102 200 c 0
 98 200 95 203 95 207 c 2
 95 765 l 2
 95 769 98 772 102 772 c 0
EndSplineSet
EndChar

StartChar: X
Encoding: 88 88 55
Width: 576
VWidth: 186
Flags: W
HStem: 200 21G<100 104 472 476> 752 20G<100 104 472 476>
VStem: 95 14<200.002 297 675 771.998> 467 14<200.002 297 675 771.998>
LayerCount: 2
Back
Fore
SplineSet
102 772 m 0
 106 772 109 769 109 765 c 0
 109 675 l 1
 288 496 l 1
 467 675 l 1
 467 765 l 2
 467 769 470 772 474 772 c 0
 478 772 481 769 481 765 c 0
 481 672 l 2
 481 670 480 668 479 667 c 2
 298 486 l 1
 479 305 l 2
 480 304 481 302 481 300 c 2
 481 207 l 2
 481 203 478 200 474 200 c 0
 470 200 467 203 467 207 c 0
 467 297 l 1
 288 476 l 1
 109 297 l 1
 109 207 l 2
 109 203 106 200 102 200 c 0
 98 200 95 203 95 207 c 0
 95 300 l 2
 95 302 96 304 97 305 c 2
 278 486 l 1
 97 667 l 2
 96 668 95 670 95 672 c 0
 95 765 l 2
 95 769 98 772 102 772 c 0
EndSplineSet
EndChar

StartChar: Y
Encoding: 89 89 56
Width: 576
VWidth: 186
Flags: W
HStem: 200 21G<286 290> 752 20G<100 104 472 476>
VStem: 95 14<675 771.998> 281 14<200.002 483> 467 14<675 771.998>
CounterMasks: 1 38
LayerCount: 2
Back
Fore
SplineSet
102 772 m 0
 106 772 109 769 109 765 c 0
 109 675 l 1
 288 496 l 1
 467 675 l 1
 467 765 l 2
 467 769 470 772 474 772 c 0
 478 772 481 769 481 765 c 0
 481 672 l 2
 481 670 480 668 479 667 c 2
 295 483 l 1
 295 207 l 2
 295 203 292 200 288 200 c 0
 284 200 281 203 281 207 c 0
 281 483 l 1
 97 667 l 2
 96 668 95 670 95 672 c 0
 95 765 l 2
 95 769 98 772 102 772 c 0
EndSplineSet
EndChar

StartChar: Z
Encoding: 90 90 57
Width: 576
VWidth: 186
Flags: W
HStem: 200 14<109 480.998> 758 14<95.0022 467>
VStem: 95 14<214 297> 467 14<675 758>
LayerCount: 2
Back
Fore
SplineSet
102 772 m 0
 474 772 l 2
 478 772 481 769 481 765 c 2
 481 672 l 2
 481 670 480 668 479 667 c 2
 109 297 l 1
 109 214 l 1
 474 214 l 2
 478 214 481 211 481 207 c 0
 481 203 478 200 474 200 c 0
 102 200 l 2
 98 200 95 203 95 207 c 2
 95 300 l 2
 95 302 96 304 97 305 c 2
 467 675 l 1
 467 758 l 1
 102 758 l 2
 98 758 95 761 95 765 c 0
 95 769 98 772 102 772 c 0
EndSplineSet
EndChar

StartChar: bracketleft
Encoding: 91 91 58
Width: 576
VWidth: 186
Flags: W
HStem: 200 14<202 387.998> 758 14<202 387.998>
VStem: 188 14<214 758>
LayerCount: 2
Back
Fore
SplineSet
195 772 m 0
 381 772 l 2
 385 772 388 769 388 765 c 0
 388 761 385 758 381 758 c 0
 202 758 l 1
 202 214 l 1
 381 214 l 2
 385 214 388 211 388 207 c 0
 388 203 385 200 381 200 c 0
 195 200 l 2
 191 200 188 203 188 207 c 2
 188 765 l 2
 188 769 191 772 195 772 c 0
EndSplineSet
EndChar

StartChar: backslash
Encoding: 92 92 59
Width: 576
VWidth: 186
Flags: W
HStem: 200 21G<519 522>
LayerCount: 2
Back
Fore
SplineSet
56 679 m 0
 58 679 59 678 60 677 c 2
 526 212 l 2
 527 211 528 209 528 207 c 0
 528 203 524 200 520 200 c 0
 518 200 517 201 516 202 c 2
 50 667 l 2
 49 668 48 670 48 672 c 0
 48 676 52 679 56 679 c 0
EndSplineSet
EndChar

StartChar: bracketright
Encoding: 93 93 60
Width: 576
VWidth: 186
Flags: W
HStem: 200 14<188.002 374> 758 14<188.002 374>
VStem: 374 14<214 758>
LayerCount: 2
Back
Fore
SplineSet
195 772 m 0
 381 772 l 2
 385 772 388 769 388 765 c 2
 388 207 l 2
 388 203 385 200 381 200 c 2
 195 200 l 2
 191 200 188 203 188 207 c 0
 188 211 191 214 195 214 c 0
 374 214 l 1
 374 758 l 1
 195 758 l 2
 191 758 188 761 188 765 c 0
 188 769 191 772 195 772 c 0
EndSplineSet
EndChar

StartChar: asciicircum
Encoding: 94 94 61
Width: 576
VWidth: 186
Flags: W
HStem: 479 200
LayerCount: 2
Back
Fore
SplineSet
288 679 m 0
 290 679 292 678 293 677 c 2
 479 491 l 2
 480 490 481 488 481 486 c 0
 481 482 478 479 474 479 c 0
 472 479 470 480 469 481 c 2
 288 662 l 1
 107 481 l 2
 106 480 104 479 102 479 c 0
 98 479 95 482 95 486 c 0
 95 488 96 490 97 491 c 2
 283 677 l 2
 284 678 286 679 288 679 c 0
EndSplineSet
EndChar

StartChar: underscore
Encoding: 95 95 62
Width: 576
VWidth: 186
Flags: W
HStem: 107 14<-43.9985 619.999>
LayerCount: 2
Back
Fore
SplineSet
-38 121 m 0
 614 121 l 2
 618 121 620 118 620 114 c 0
 620 110 618 107 614 107 c 0
 -38 107 l 2
 -42 107 -44 110 -44 114 c 0
 -44 118 -42 121 -38 121 c 0
EndSplineSet
EndChar

StartChar: grave
Encoding: 96 96 63
Width: 576
VWidth: 186
Flags: W
HStem: 572 200
VStem: 234 14<768 771.923> 328 14<572.077 576>
LayerCount: 2
Back
Fore
SplineSet
242 772 m 0
 244 772 247 770 248 768 c 2
 340 582 l 2
 340 581 342 580 342 579 c 0
 342 575 338 572 334 572 c 0
 332 572 329 574 328 576 c 2
 236 762 l 2
 236 763 234 764 234 765 c 0
 234 769 238 772 242 772 c 0
EndSplineSet
EndChar

StartChar: a
Encoding: 97 97 64
Width: 576
VWidth: 186
Flags: W
HStem: 200 14<198 285> 479 14<198 285> 572 14<95.0022 285>
VStem: 95 14<303 390> 374 14<303 390 410 483>
LayerCount: 2
Back
Fore
SplineSet
102 586 m 0
 288 586 l 2
 290 586 292 585 293 584 c 2
 386 491 l 2
 387 490 388 488 388 486 c 2
 388 394 l 2
 388 393 l 0
 388 392 l 2
 388 303 l 1
 479 212 l 2
 480 211 481 209 481 207 c 0
 481 203 478 200 474 200 c 0
 472 200 470 201 469 202 c 2
 381 290 l 1
 293 202 l 2
 292 201 290 200 288 200 c 0
 195 200 l 2
 193 200 191 201 190 202 c 2
 97 295 l 2
 96 296 95 298 95 300 c 2
 95 393 l 2
 95 395 96 397 97 398 c 2
 190 491 l 2
 191 492 193 493 195 493 c 0
 288 493 l 2
 290 493 292 492 293 491 c 2
 374 410 l 1
 374 483 l 1
 285 572 l 1
 102 572 l 2
 98 572 95 575 95 579 c 0
 95 583 98 586 102 586 c 0
198 479 m 1
 109 390 l 1
 109 303 l 1
 198 214 l 1
 285 214 l 1
 374 303 l 1
 374 390 l 1
 285 479 l 1
 198 479 l 1
EndSplineSet
EndChar

StartChar: b
Encoding: 98 98 65
Width: 576
VWidth: 186
Flags: W
HStem: 200 14<156 332> 572 14<156 332> 752 20G<146 150>
VStem: 142 14<214 572 586 771.923> 420 14<303 483>
LayerCount: 2
Back
Fore
SplineSet
148 772 m 0
 152 772 156 769 156 765 c 0
 156 586 l 1
 334 586 l 2
 336 586 339 585 340 584 c 2
 432 491 l 2
 433 490 434 488 434 486 c 2
 434 300 l 2
 434 298 433 296 432 295 c 2
 340 202 l 2
 339 201 336 200 334 200 c 0
 148 200 l 2
 144 200 142 203 142 207 c 2
 142 578 l 2
 142 579 l 0
 142 580 l 2
 142 765 l 2
 142 769 144 772 148 772 c 0
156 572 m 1
 156 214 l 1
 332 214 l 1
 420 303 l 1
 420 483 l 1
 332 572 l 1
 156 572 l 1
EndSplineSet
EndChar

StartChar: c
Encoding: 99 99 66
Width: 576
VWidth: 186
Flags: W
HStem: 200 14<244 332> 572 14<244 332>
VStem: 142 14<303 483>
LayerCount: 2
Back
Fore
SplineSet
242 586 m 0
 334 586 l 2
 336 586 339 585 340 584 c 2
 432 491 l 2
 433 490 434 488 434 486 c 0
 434 482 432 479 428 479 c 0
 426 479 423 480 422 481 c 2
 332 572 l 1
 244 572 l 1
 156 483 l 1
 156 303 l 1
 244 214 l 1
 332 214 l 1
 422 305 l 2
 423 306 426 307 428 307 c 0
 432 307 434 304 434 300 c 0
 434 298 433 296 432 295 c 2
 340 202 l 2
 339 201 336 200 334 200 c 0
 242 200 l 2
 240 200 237 201 236 202 c 2
 144 295 l 2
 143 296 142 298 142 300 c 2
 142 486 l 2
 142 488 143 490 144 491 c 2
 236 584 l 2
 237 585 240 586 242 586 c 0
EndSplineSet
EndChar

StartChar: d
Encoding: 100 100 67
Width: 576
VWidth: 186
Flags: W
HStem: 200 14<244 420> 572 14<244 420> 752 20G<426 430>
VStem: 142 14<303 483> 420 14<214 572 586 771.923>
LayerCount: 2
Back
Fore
SplineSet
428 772 m 0
 432 772 434 769 434 765 c 0
 434 580 l 2
 434 579 l 0
 434 578 l 2
 434 207 l 2
 434 203 432 200 428 200 c 2
 242 200 l 2
 240 200 237 201 236 202 c 2
 144 295 l 2
 143 296 142 298 142 300 c 2
 142 486 l 2
 142 488 143 490 144 491 c 2
 236 584 l 2
 237 585 240 586 242 586 c 0
 420 586 l 1
 420 765 l 2
 420 769 424 772 428 772 c 0
244 572 m 1
 156 483 l 1
 156 303 l 1
 244 214 l 1
 420 214 l 1
 420 572 l 1
 244 572 l 1
EndSplineSet
EndChar

StartChar: e
Encoding: 101 101 68
Width: 576
VWidth: 186
Flags: W
HStem: 200 14<244 433.999> 386 14<156 420> 572 14<244 332>
VStem: 142 14<303 386 400 483> 420 14<400 483>
CounterMasks: 1 e0
LayerCount: 2
Back
Fore
SplineSet
242 586 m 0
 334 586 l 2
 336 586 339 585 340 584 c 2
 432 491 l 2
 433 490 434 488 434 486 c 2
 434 393 l 2
 434 389 432 386 428 386 c 2
 156 386 l 1
 156 303 l 1
 244 214 l 1
 428 214 l 2
 432 214 434 211 434 207 c 0
 434 203 432 200 428 200 c 0
 242 200 l 2
 240 200 237 201 236 202 c 2
 144 295 l 2
 143 296 142 298 142 300 c 2
 142 392 l 2
 142 393 l 0
 142 394 l 2
 142 486 l 2
 142 488 143 490 144 491 c 2
 236 584 l 2
 237 585 240 586 242 586 c 0
244 572 m 1
 156 483 l 1
 156 400 l 1
 420 400 l 1
 420 483 l 1
 332 572 l 1
 244 572 l 1
EndSplineSet
EndChar

StartChar: f
Encoding: 102 102 69
Width: 576
VWidth: 186
Flags: W
HStem: 200 21G<286 290> 479 14<188.002 281 295 387.998> 758 14<295 387.998>
VStem: 281 14<200.002 479 493 758>
LayerCount: 2
Back
Fore
SplineSet
288 772 m 0
 381 772 l 2
 385 772 388 769 388 765 c 0
 388 761 385 758 381 758 c 0
 295 758 l 1
 295 493 l 1
 381 493 l 2
 385 493 388 490 388 486 c 0
 388 482 385 479 381 479 c 0
 295 479 l 1
 295 207 l 2
 295 203 292 200 288 200 c 0
 284 200 281 203 281 207 c 0
 281 479 l 1
 195 479 l 2
 191 479 188 482 188 486 c 0
 188 490 191 493 195 493 c 0
 281 493 l 1
 281 765 l 2
 281 769 284 772 288 772 c 0
EndSplineSet
EndChar

StartChar: g
Encoding: 103 103 70
Width: 576
VWidth: 186
Flags: W
HStem: 107 14<244 332> 293 14<244 332> 572 14<244 332>
VStem: 142 14<396 483> 420 14<210 376 396 483>
LayerCount: 2
Back
Fore
SplineSet
242 586 m 0
 334 586 l 2
 336 586 339 585 340 584 c 2
 432 491 l 2
 433 490 434 488 434 486 c 2
 434 394 l 2
 434 393 l 0
 434 392 l 2
 434 207 l 2
 434 205 433 203 432 202 c 2
 340 109 l 2
 339 108 336 107 334 107 c 2
 242 107 l 2
 240 107 237 108 236 109 c 2
 144 202 l 2
 143 203 142 205 142 207 c 0
 142 211 144 214 148 214 c 0
 150 214 153 213 154 212 c 2
 244 121 l 1
 332 121 l 1
 420 210 l 1
 420 376 l 1
 340 295 l 2
 339 294 336 293 334 293 c 2
 242 293 l 2
 240 293 237 294 236 295 c 2
 144 388 l 2
 143 389 142 391 142 393 c 2
 142 486 l 2
 142 488 143 490 144 491 c 2
 236 584 l 2
 237 585 240 586 242 586 c 0
244 572 m 1
 156 483 l 1
 156 396 l 1
 244 307 l 1
 332 307 l 1
 420 396 l 1
 420 483 l 1
 332 572 l 1
 244 572 l 1
EndSplineSet
EndChar

StartChar: h
Encoding: 104 104 71
Width: 576
VWidth: 186
Flags: W
HStem: 200 21G<146 150 426 430> 572 14<156 332> 752 20G<146 150>
VStem: 142 14<200.077 572 586 771.923> 420 14<200.077 483>
LayerCount: 2
Back
Fore
SplineSet
148 772 m 0
 152 772 156 769 156 765 c 0
 156 586 l 1
 334 586 l 2
 336 586 339 585 340 584 c 2
 432 491 l 2
 433 490 434 488 434 486 c 2
 434 207 l 2
 434 203 432 200 428 200 c 0
 424 200 420 203 420 207 c 0
 420 483 l 1
 332 572 l 1
 156 572 l 1
 156 207 l 2
 156 203 152 200 148 200 c 0
 144 200 142 203 142 207 c 0
 142 578 l 2
 142 579 l 0
 142 580 l 2
 142 765 l 2
 142 769 144 772 148 772 c 0
EndSplineSet
EndChar

StartChar: i
Encoding: 105 105 72
Width: 576
VWidth: 186
Flags: W
HStem: 200 21G<286 290>
VStem: 281 14<200.002 492.998 572.002 678.998>
LayerCount: 2
Back
Fore
SplineSet
288 679 m 0
 292 679 295 676 295 672 c 0
 295 579 l 2
 295 575 292 572 288 572 c 0
 284 572 281 575 281 579 c 0
 281 672 l 2
 281 676 284 679 288 679 c 0
288 493 m 0
 292 493 295 490 295 486 c 0
 295 207 l 2
 295 203 292 200 288 200 c 0
 284 200 281 203 281 207 c 0
 281 486 l 2
 281 490 284 493 288 493 c 0
EndSplineSet
EndChar

StartChar: j
Encoding: 106 106 73
Width: 576
VWidth: 186
Flags: W
HStem: 107 14<244 332>
VStem: 420 14<210 492.923 572.077 678.923>
LayerCount: 2
Back
Fore
SplineSet
428 679 m 0
 432 679 434 676 434 672 c 0
 434 579 l 2
 434 575 432 572 428 572 c 0
 424 572 420 575 420 579 c 0
 420 672 l 2
 420 676 424 679 428 679 c 0
428 493 m 0
 432 493 434 490 434 486 c 0
 434 207 l 2
 434 205 433 203 432 202 c 2
 340 109 l 2
 339 108 336 107 334 107 c 2
 242 107 l 2
 240 107 237 108 236 109 c 2
 144 202 l 2
 143 203 142 205 142 207 c 0
 142 211 144 214 148 214 c 0
 150 214 153 213 154 212 c 2
 244 121 l 1
 332 121 l 1
 420 210 l 1
 420 486 l 2
 420 490 424 493 428 493 c 0
EndSplineSet
EndChar

StartChar: k
Encoding: 107 107 74
Width: 576
VWidth: 186
Flags: W
HStem: 200 21G<146 150 427 430> 566 20G<427 430> 752 20G<146 150>
VStem: 142 14<200.077 297 317 771.923>
LayerCount: 2
Back
Fore
SplineSet
148 772 m 0
 152 772 156 769 156 765 c 0
 156 317 l 1
 236 397 l 2
 236 398 237 399 238 399 c 2
 422 584 l 2
 423 585 426 586 428 586 c 0
 432 586 434 583 434 579 c 0
 434 577 433 575 432 574 c 2
 252 393 l 1
 432 212 l 2
 433 211 434 209 434 207 c 0
 434 203 432 200 428 200 c 0
 426 200 423 201 422 202 c 2
 242 383 l 1
 156 297 l 1
 156 207 l 2
 156 203 152 200 148 200 c 0
 144 200 142 203 142 207 c 0
 142 299 l 2
 142 300 l 0
 142 301 l 2
 142 765 l 2
 142 769 144 772 148 772 c 0
EndSplineSet
EndChar

StartChar: l
Encoding: 108 108 75
Width: 576
VWidth: 186
Flags: W
HStem: 200 14<248 341.997> 752 20G<240 244>
VStem: 234 14<214 771.923>
LayerCount: 2
Back
Fore
SplineSet
242 772 m 0
 246 772 248 769 248 765 c 0
 248 214 l 1
 334 214 l 2
 338 214 342 211 342 207 c 0
 342 203 338 200 334 200 c 0
 242 200 l 2
 238 200 234 203 234 207 c 2
 234 765 l 2
 234 769 238 772 242 772 c 0
EndSplineSet
EndChar

StartChar: m
Encoding: 109 109 76
Width: 576
VWidth: 186
Flags: W
HStem: 200 21G<100 104 286 290 472 476> 566 20G<100 104 194 196 380 382>
VStem: 95 14<200.002 483 503 585.998> 281 14<200.002 483> 467 14<200.002 483>
CounterMasks: 1 38
LayerCount: 2
Back
Fore
SplineSet
102 586 m 0
 106 586 109 583 109 579 c 0
 109 503 l 1
 190 584 l 2
 191 585 193 586 195 586 c 0
 197 586 199 585 200 584 c 2
 288 496 l 1
 376 584 l 2
 377 585 379 586 381 586 c 0
 383 586 385 585 386 584 c 2
 479 491 l 2
 480 490 481 488 481 486 c 2
 481 207 l 2
 481 203 478 200 474 200 c 0
 470 200 467 203 467 207 c 0
 467 483 l 1
 381 569 l 1
 295 483 l 1
 295 207 l 2
 295 203 292 200 288 200 c 0
 284 200 281 203 281 207 c 0
 281 483 l 1
 195 569 l 1
 109 483 l 1
 109 207 l 2
 109 203 106 200 102 200 c 0
 98 200 95 203 95 207 c 0
 95 485 l 2
 95 486 l 0
 95 487 l 2
 95 579 l 2
 95 583 98 586 102 586 c 0
EndSplineSet
EndChar

StartChar: n
Encoding: 110 110 77
Width: 576
VWidth: 186
Flags: W
HStem: 200 21G<146 150 426 430> 572 14<244 332>
VStem: 142 14<200.077 483 503 585.923> 420 14<200.077 483>
LayerCount: 2
Back
Fore
SplineSet
242 586 m 0
 334 586 l 2
 336 586 339 585 340 584 c 2
 432 491 l 2
 433 490 434 488 434 486 c 2
 434 207 l 2
 434 203 432 200 428 200 c 0
 424 200 420 203 420 207 c 0
 420 483 l 1
 332 572 l 1
 244 572 l 1
 156 483 l 1
 156 207 l 2
 156 203 152 200 148 200 c 0
 144 200 142 203 142 207 c 0
 142 486 l 1
 142 579 l 2
 142 583 144 586 148 586 c 0
 152 586 156 583 156 579 c 2
 156 503 l 1
 236 584 l 2
 237 585 240 586 242 586 c 0
EndSplineSet
EndChar

StartChar: o
Encoding: 111 111 78
Width: 576
VWidth: 186
Flags: W
HStem: 200 14<244 332> 572 14<244 332>
VStem: 142 14<303 483> 420 14<303 483>
LayerCount: 2
Back
Fore
SplineSet
242 586 m 0
 334 586 l 2
 336 586 339 585 340 584 c 2
 432 491 l 2
 433 490 434 488 434 486 c 2
 434 300 l 2
 434 298 433 296 432 295 c 2
 340 202 l 2
 339 201 336 200 334 200 c 0
 242 200 l 2
 240 200 237 201 236 202 c 2
 144 294 l 2
 143 295 142 296 142 297 c 0
 142 298 l 0
 142 299 142 299 142 300 c 0
 142 301 l 2
 142 486 l 2
 142 488 143 490 144 491 c 2
 236 584 l 2
 237 585 240 586 242 586 c 0
244 572 m 1
 156 483 l 1
 156 303 l 1
 244 214 l 1
 332 214 l 1
 420 303 l 1
 420 483 l 1
 332 572 l 1
 244 572 l 1
EndSplineSet
EndChar

StartChar: p
Encoding: 112 112 79
Width: 576
VWidth: 186
Flags: W
HStem: 107 21G<146 150> 293 14<156 332> 572 14<156 332>
VStem: 142 14<107.077 293 307 572> 420 14<396 483>
LayerCount: 2
Back
Fore
SplineSet
148 586 m 0
 334 586 l 2
 336 586 339 585 340 584 c 2
 432 491 l 2
 433 490 434 488 434 486 c 2
 434 393 l 2
 434 391 433 389 432 388 c 2
 340 295 l 2
 339 294 336 293 334 293 c 2
 156 293 l 1
 156 114 l 2
 156 110 152 107 148 107 c 0
 144 107 142 110 142 114 c 0
 142 299 l 2
 142 300 l 0
 142 301 l 2
 142 579 l 2
 142 583 144 586 148 586 c 0
156 572 m 1
 156 307 l 1
 332 307 l 1
 420 396 l 1
 420 483 l 1
 332 572 l 1
 156 572 l 1
EndSplineSet
EndChar

StartChar: q
Encoding: 113 113 80
Width: 576
VWidth: 186
Flags: W
HStem: 107 14<388 480.998> 293 14<198 374> 572 14<198 374>
VStem: 95 14<396 483> 374 14<121 293 307 572>
LayerCount: 2
Back
Fore
SplineSet
195 586 m 0
 381 586 l 2
 385 586 388 583 388 579 c 2
 388 301 l 2
 388 300 l 0
 388 299 l 2
 388 121 l 1
 474 121 l 2
 478 121 481 118 481 114 c 0
 481 110 478 107 474 107 c 0
 381 107 l 2
 377 107 374 110 374 114 c 2
 374 293 l 1
 195 293 l 2
 193 293 191 294 190 295 c 2
 97 388 l 2
 96 389 95 391 95 393 c 2
 95 486 l 2
 95 488 96 490 97 491 c 2
 190 584 l 2
 191 585 193 586 195 586 c 0
198 572 m 1
 109 483 l 1
 109 396 l 1
 198 307 l 1
 374 307 l 1
 374 572 l 1
 198 572 l 1
EndSplineSet
EndChar

StartChar: r
Encoding: 114 114 81
Width: 576
VWidth: 186
Flags: W
HStem: 200 21G<240 244> 572 14<338 433.999>
VStem: 234 14<200.077 483>
LayerCount: 2
Back
Fore
SplineSet
148 586 m 0
 150 586 153 585 154 584 c 2
 242 496 l 1
 330 584 l 2
 331 585 332 586 334 586 c 0
 428 586 l 2
 432 586 434 583 434 579 c 0
 434 575 432 572 428 572 c 0
 338 572 l 1
 248 483 l 1
 248 207 l 2
 248 203 246 200 242 200 c 0
 238 200 234 203 234 207 c 0
 234 483 l 1
 144 574 l 2
 143 575 142 577 142 579 c 0
 142 583 144 586 148 586 c 0
EndSplineSet
EndChar

StartChar: s
Encoding: 115 115 82
Width: 576
VWidth: 186
Flags: W
HStem: 200 14<244 332> 386 14<244 332> 572 14<244 332>
VStem: 142 292<298 302 484 488>
CounterMasks: 1 e0
LayerCount: 2
Back
Fore
SplineSet
242 586 m 0
 334 586 l 2
 336 586 339 585 340 584 c 2
 432 491 l 2
 433 490 434 488 434 486 c 0
 434 482 432 479 428 479 c 0
 426 479 423 480 422 481 c 2
 332 572 l 1
 244 572 l 1
 158 486 l 1
 244 400 l 1
 334 400 l 2
 336 400 339 399 340 398 c 2
 432 305 l 2
 433 304 434 302 434 300 c 0
 434 298 433 296 432 295 c 2
 340 202 l 2
 339 201 336 200 334 200 c 0
 242 200 l 2
 240 200 237 201 236 202 c 2
 144 295 l 2
 143 296 142 298 142 300 c 0
 142 304 144 307 148 307 c 0
 150 307 153 306 154 305 c 2
 244 214 l 1
 332 214 l 1
 418 300 l 1
 332 386 l 1
 242 386 l 2
 240 386 237 387 236 388 c 2
 144 481 l 2
 143 482 142 484 142 486 c 0
 142 488 143 490 144 491 c 2
 236 584 l 2
 237 585 240 586 242 586 c 0
EndSplineSet
EndChar

StartChar: t
Encoding: 116 116 83
Width: 576
VWidth: 186
Flags: W
HStem: 200 14<295 387.998> 572 14<188.002 281 295 387.998> 752 20G<286 290>
VStem: 281 14<214 572 586 771.998>
LayerCount: 2
Back
Fore
SplineSet
288 772 m 0
 292 772 295 769 295 765 c 0
 295 586 l 1
 381 586 l 2
 385 586 388 583 388 579 c 0
 388 575 385 572 381 572 c 0
 295 572 l 1
 295 214 l 1
 381 214 l 2
 385 214 388 211 388 207 c 0
 388 203 385 200 381 200 c 0
 288 200 l 2
 284 200 281 203 281 207 c 2
 281 572 l 1
 195 572 l 2
 191 572 188 575 188 579 c 0
 188 583 191 586 195 586 c 0
 281 586 l 1
 281 765 l 2
 281 769 284 772 288 772 c 0
EndSplineSet
EndChar

StartChar: u
Encoding: 117 117 84
Width: 576
VWidth: 186
Flags: W
HStem: 200 14<156 420> 566 20G<146 150 426 430>
VStem: 142 14<214 585.923> 420 14<214 585.923>
LayerCount: 2
Back
Fore
SplineSet
148 586 m 0
 152 586 156 583 156 579 c 0
 156 214 l 1
 420 214 l 1
 420 579 l 2
 420 583 424 586 428 586 c 0
 432 586 434 583 434 579 c 0
 434 207 l 2
 434 203 432 200 428 200 c 2
 148 200 l 2
 144 200 142 203 142 207 c 2
 142 579 l 2
 142 583 144 586 148 586 c 0
EndSplineSet
EndChar

StartChar: v
Encoding: 118 118 85
Width: 576
VWidth: 186
Flags: W
HStem: 200 21G<287 289> 566 20G<100 104 472 476>
VStem: 95 14<396 585.998> 467 14<396 585.998>
LayerCount: 2
Back
Fore
SplineSet
102 586 m 0
 106 586 109 583 109 579 c 0
 109 396 l 1
 288 217 l 1
 467 396 l 1
 467 579 l 2
 467 583 470 586 474 586 c 0
 478 586 481 583 481 579 c 0
 481 393 l 2
 481 391 480 389 479 388 c 2
 293 202 l 2
 292 201 290 200 288 200 c 0
 286 200 284 201 283 202 c 2
 97 388 l 2
 96 389 95 391 95 393 c 2
 95 579 l 2
 95 583 98 586 102 586 c 0
EndSplineSet
EndChar

StartChar: w
Encoding: 119 119 86
Width: 576
VWidth: 186
Flags: W
HStem: 200 21G<194 196 380 382> 566 20G<100 104 472 476>
VStem: 95 14<303 585.998> 281 14<303 399.998> 467 14<303 585.998>
CounterMasks: 1 38
LayerCount: 2
Back
Fore
SplineSet
102 586 m 0
 106 586 109 583 109 579 c 0
 109 303 l 1
 195 217 l 1
 281 303 l 1
 281 393 l 2
 281 397 284 400 288 400 c 0
 292 400 295 397 295 393 c 2
 295 303 l 1
 381 217 l 1
 467 303 l 1
 467 579 l 2
 467 583 470 586 474 586 c 0
 478 586 481 583 481 579 c 0
 481 300 l 2
 481 298 480 296 479 295 c 2
 386 202 l 2
 385 201 383 200 381 200 c 0
 379 200 377 201 376 202 c 2
 288 290 l 1
 200 202 l 2
 199 201 197 200 195 200 c 0
 193 200 191 201 190 202 c 2
 97 295 l 2
 96 296 95 298 95 300 c 2
 95 579 l 2
 95 583 98 586 102 586 c 0
EndSplineSet
EndChar

StartChar: x
Encoding: 120 120 87
Width: 576
VWidth: 186
Flags: W
HStem: 200 21G<100 103 473 476> 566 20G<100 103 473 476>
LayerCount: 2
Back
Fore
SplineSet
102 586 m 0
 104 586 106 585 107 584 c 2
 288 403 l 1
 469 584 l 2
 470 585 472 586 474 586 c 0
 478 586 481 583 481 579 c 0
 481 577 480 575 479 574 c 2
 298 393 l 1
 479 212 l 2
 480 211 481 209 481 207 c 0
 481 203 478 200 474 200 c 0
 472 200 470 201 469 202 c 2
 288 383 l 1
 107 202 l 2
 106 201 104 200 102 200 c 0
 98 200 95 203 95 207 c 0
 95 209 96 211 97 212 c 2
 278 393 l 1
 97 574 l 2
 96 575 95 577 95 579 c 0
 95 583 98 586 102 586 c 0
EndSplineSet
EndChar

StartChar: y
Encoding: 121 121 88
Width: 576
VWidth: 186
Flags: W
HStem: 107 21G<100 103> 566 20G<100 104 472 476>
VStem: 95 14<489 585.998> 467 14<489 585.998>
LayerCount: 2
Back
Fore
SplineSet
102 586 m 0
 106 586 109 583 109 579 c 0
 109 489 l 1
 288 310 l 1
 467 489 l 1
 467 579 l 2
 467 583 470 586 474 586 c 0
 478 586 481 583 481 579 c 0
 481 486 l 2
 481 484 480 482 479 481 c 2
 294 296 l 2
 294 295 293 294 292 294 c 2
 107 109 l 2
 106 108 104 107 102 107 c 0
 98 107 95 110 95 114 c 0
 95 116 96 118 97 119 c 2
 278 300 l 1
 97 481 l 2
 96 482 95 484 95 486 c 0
 95 579 l 2
 95 583 98 586 102 586 c 0
EndSplineSet
EndChar

StartChar: z
Encoding: 122 122 89
Width: 576
VWidth: 186
Flags: W
HStem: 200 14<119 480.998> 572 14<95.0022 457>
LayerCount: 2
Back
Fore
SplineSet
102 586 m 0
 474 586 l 2
 478 586 481 583 481 579 c 0
 481 577 480 575 479 574 c 2
 119 214 l 1
 474 214 l 2
 478 214 481 211 481 207 c 0
 481 203 478 200 474 200 c 0
 102 200 l 2
 98 200 95 203 95 207 c 0
 95 209 96 211 97 212 c 2
 457 572 l 1
 102 572 l 2
 98 572 95 575 95 579 c 0
 95 583 98 586 102 586 c 0
EndSplineSet
EndChar

StartChar: braceleft
Encoding: 123 123 90
Width: 576
VWidth: 186
Flags: W
HStem: 200 14<291 387.998> 758 14<291 387.998>
VStem: 190 198
LayerCount: 2
Back
Fore
SplineSet
288 772 m 1
 381 772 l 2
 385 772 388 769 388 765 c 0
 388 761 385 758 381 758 c 0
 291 758 l 1
 205 672 l 1
 293 584 l 2
 294 583 295 581 295 579 c 0
 295 577 294 575 293 574 c 2
 205 486 l 1
 293 398 l 2
 294 397 295 395 295 393 c 0
 295 391 294 389 293 388 c 2
 205 300 l 1
 291 214 l 1
 381 214 l 2
 385 214 388 211 388 207 c 0
 388 203 385 200 381 200 c 0
 288 200 l 2
 286 200 284 201 283 202 c 2
 190 295 l 2
 189 296 188 298 188 300 c 0
 188 302 189 304 190 305 c 2
 278 393 l 1
 190 481 l 2
 189 482 188 484 188 486 c 0
 188 488 189 490 190 491 c 2
 278 579 l 1
 190 667 l 2
 189 668 188 670 188 672 c 0
 188 674 189 676 190 677 c 2
 283 770 l 2
 284 771 286 772 288 772 c 1
EndSplineSet
EndChar

StartChar: bar
Encoding: 124 124 91
Width: 576
VWidth: 186
Flags: W
HStem: 107 21G<286 290> 752 20G<286 290>
VStem: 281 14<107.002 771.998>
LayerCount: 2
Back
Fore
SplineSet
288 772 m 0
 292 772 295 769 295 765 c 0
 295 114 l 2
 295 110 292 107 288 107 c 0
 284 107 281 110 281 114 c 0
 281 765 l 2
 281 769 284 772 288 772 c 0
EndSplineSet
EndChar

StartChar: braceright
Encoding: 125 125 92
Width: 576
VWidth: 186
Flags: W
HStem: 200 14<188.002 285> 758 14<188.002 285>
VStem: 188 200
LayerCount: 2
Back
Fore
SplineSet
195 772 m 0
 288 772 l 2
 290 772 292 771 293 770 c 2
 386 677 l 2
 387 676 388 674 388 672 c 0
 388 670 387 668 386 667 c 2
 298 579 l 1
 386 491 l 2
 387 490 388 488 388 486 c 0
 388 484 387 482 386 481 c 2
 298 393 l 1
 386 305 l 2
 387 304 388 302 388 300 c 0
 388 298 387 296 386 295 c 2
 293 202 l 2
 292 201 290 200 288 200 c 0
 195 200 l 2
 191 200 188 203 188 207 c 0
 188 211 191 214 195 214 c 0
 285 214 l 1
 371 300 l 1
 283 388 l 2
 282 389 281 391 281 393 c 0
 281 395 282 397 283 398 c 2
 371 486 l 1
 283 574 l 2
 282 575 281 577 281 579 c 0
 281 581 282 583 283 584 c 2
 371 672 l 1
 285 758 l 1
 195 758 l 2
 191 758 188 761 188 765 c 0
 188 769 191 772 195 772 c 0
EndSplineSet
EndChar

StartChar: asciitilde
Encoding: 126 126 93
Width: 576
VWidth: 186
Flags: W
HStem: 388 198
LayerCount: 2
Back
Fore
SplineSet
195 586 m 0
 197 586 199 585 200 584 c 2
 381 403 l 1
 469 491 l 2
 470 492 472 493 474 493 c 0
 478 493 481 490 481 486 c 0
 481 484 480 482 479 481 c 2
 386 388 l 2
 385 387 383 386 381 386 c 0
 379 386 377 387 376 388 c 2
 195 569 l 1
 107 481 l 2
 106 480 104 479 102 479 c 0
 98 479 95 482 95 486 c 0
 95 488 96 490 97 491 c 2
 190 584 l 2
 191 585 193 586 195 586 c 0
EndSplineSet
EndChar

StartChar: sterling
Encoding: 163 163 94
Width: 576
VWidth: 186
Flags: W
HStem: 200 14<152 238 338 527.997> 479 14<234.003 328 342 433.999> 665 14<430 527.997>
VStem: 328 14<303 479 493 576>
LayerCount: 2
Back
Fore
SplineSet
428 679 m 0
 520 679 l 2
 524 679 528 676 528 672 c 0
 528 668 524 665 520 665 c 0
 430 665 l 1
 342 576 l 1
 342 493 l 1
 428 493 l 2
 432 493 434 490 434 486 c 0
 434 482 432 479 428 479 c 0
 342 479 l 1
 342 300 l 2
 342 298 341 296 340 295 c 2
 298 254 l 1
 338 214 l 1
 520 214 l 2
 524 214 528 211 528 207 c 0
 528 203 524 200 520 200 c 0
 334 200 l 2
 332 200 331 201 330 202 c 2
 288 244 l 1
 246 202 l 2
 245 201 244 200 242 200 c 0
 148 200 l 2
 146 200 145 201 144 202 c 2
 50 295 l 2
 49 296 48 298 48 300 c 0
 48 302 49 304 50 305 c 2
 144 398 l 2
 145 399 146 400 148 400 c 0
 150 400 153 399 154 398 c 2
 288 264 l 1
 328 303 l 1
 328 479 l 1
 242 479 l 2
 238 479 234 482 234 486 c 0
 234 490 238 493 242 493 c 0
 328 493 l 1
 328 579 l 2
 328 581 329 583 330 584 c 2
 422 677 l 2
 423 678 426 679 428 679 c 0
148 383 m 1
 66 300 l 1
 152 214 l 1
 238 214 l 1
 278 254 l 1
 148 383 l 1
EndSplineSet
EndChar

StartChar: pi
Encoding: 960 960 95
Width: 576
VWidth: 186
Flags: W
HStem: 200 21G<193 197 379 383> 479 14<202 374> 566 20G<473 476>
VStem: 188 14<200.002 469> 374 14<200.002 479>
LayerCount: 2
Back
Fore
SplineSet
474 586 m 0
 478 586 481 583 481 579 c 0
 481 577 480 575 479 574 c 2
 388 483 l 1
 388 207 l 2
 388 203 385 200 381 200 c 0
 377 200 374 203 374 207 c 0
 374 479 l 1
 202 479 l 1
 202 207 l 2
 202 203 199 200 195 200 c 0
 191 200 188 203 188 207 c 0
 188 469 l 1
 107 388 l 2
 106 387 104 386 102 386 c 0
 98 386 95 389 95 393 c 0
 95 395 96 397 97 398 c 2
 190 491 l 1
 191 492 l 0
 192 492 l 0
 192 493 l 0
 193 493 l 0
 194 493 l 0
 195 493 l 2
 378 493 l 1
 469 584 l 2
 470 585 472 586 474 586 c 0
EndSplineSet
EndChar

StartChar: arrowleft
Encoding: 8592 8592 96
Width: 576
VWidth: 186
Flags: W
HStem: 479 14<72 527.997>
LayerCount: 2
Back
Fore
SplineSet
242 679 m 0
 246 679 248 676 248 672 c 0
 248 670 247 668 246 667 c 2
 72 493 l 1
 520 493 l 2
 524 493 528 490 528 486 c 0
 528 482 524 479 520 479 c 0
 72 479 l 1
 246 305 l 2
 247 304 248 302 248 300 c 0
 248 296 246 293 242 293 c 0
 240 293 237 294 236 295 c 2
 52 481 l 2
 50 482 48 484 48 486 c 0
 48 488 50 491 52 492 c 2
 236 677 l 2
 237 678 240 679 242 679 c 0
EndSplineSet
EndChar

StartChar: arrowup
Encoding: 8593 8593 97
Width: 576
VWidth: 186
Flags: W
HStem: 200 21G<286 290>
VStem: 281 14<200.002 655>
LayerCount: 2
Back
Fore
SplineSet
288 679 m 0
 290 679 293 679 294 677 c 2
 479 491 l 2
 480 490 481 488 481 486 c 0
 481 482 478 479 474 479 c 0
 472 479 470 480 469 481 c 2
 295 655 l 1
 295 207 l 2
 295 203 292 200 288 200 c 0
 284 200 281 203 281 207 c 0
 281 655 l 1
 107 481 l 2
 106 480 104 479 102 479 c 0
 98 479 95 482 95 486 c 0
 95 488 96 490 97 491 c 2
 283 677 l 2
 284 679 286 679 288 679 c 0
EndSplineSet
EndChar

StartChar: SF100000
Encoding: 9472 9472 98
Width: 576
VWidth: 186
Flags: W
HStem: 479 14<-43.9985 619.999>
LayerCount: 2
Back
Fore
SplineSet
-38 493 m 0
 614 493 l 2
 618 493 620 490 620 486 c 0
 620 482 618 479 614 479 c 0
 -38 479 l 2
 -42 479 -44 482 -44 486 c 0
 -44 490 -42 493 -38 493 c 0
EndSplineSet
EndChar

StartChar: SF110000
Encoding: 9474 9474 99
Width: 576
VWidth: 186
Flags: W
HStem: 107 21G<286 290> 752 20G<286 290>
VStem: 281 14<107.002 771.998>
LayerCount: 2
Back
Fore
SplineSet
288 772 m 0
 292 772 295 769 295 765 c 0
 295 114 l 2
 295 110 292 107 288 107 c 0
 284 107 281 110 281 114 c 0
 281 765 l 2
 281 769 284 772 288 772 c 0
EndSplineSet
EndChar

StartChar: uni25B3
Encoding: 9651 9651 100
Width: 576
VWidth: 186
Flags: W
HStem: 200 14<26 550>
LayerCount: 2
Back
Fore
SplineSet
288 493 m 0
 290 493 292 492 293 491 c 2
 572 212 l 2
 573 211 574 209 574 207 c 0
 574 203 571 200 567 200 c 2
 10 200 l 2
 9 200 l 0
 6 200 4 202 3 204 c 0
 3 205 2 206 2 207 c 0
 2 209 3 212 5 213 c 2
 283 491 l 2
 284 492 286 493 288 493 c 0
288 476 m 1
 26 214 l 1
 550 214 l 1
 288 476 l 1
EndSplineSet
EndChar

StartChar: uni25FB
Encoding: 9723 9723 101
Width: 576
VWidth: 186
Flags: W
HStem: 200 14<62 514> 758 14<62 514>
VStem: 48 14<214 758> 514 14<214 758>
LayerCount: 2
Back
Fore
SplineSet
56 772 m 1
 520 772 l 2
 524 772 528 769 528 765 c 2
 528 207 l 2
 528 203 524 200 520 200 c 2
 56 200 l 2
 54 200 51 201 50 202 c 0
 49 203 48 205 48 207 c 0
 48 208 l 2
 48 765 l 2
 48 769 52 772 56 772 c 1
62 758 m 1
 62 214 l 1
 514 214 l 1
 514 758 l 1
 62 758 l 1
EndSplineSet
EndChar

